<?xml version="1.0" encoding="utf-8"?>
<svg id="master-artboard" viewBox="0 0 1400 980" version="1.1" xmlns="http://www.w3.org/2000/svg" x="0px" y="0px" style="enable-background:new 0 0 1400 980;" width="1400px" height="980px"><defs><style id="ee-google-fonts">@import url(https://fonts.googleapis.com/css?family=Amatic+SC:700,400);</style></defs><g transform="matrix(2.6676011085510254, 0, 0, 2.6676011085510254, -1183.6942481954372, -57.13115632955555)"><g transform="matrix(1, 0, 0, 1, 0, 0)">
	<g class="st1">
		<path class="st2" d="M582.6,311.5c-1.8,3.1,56,28.1,54.2,31.3c-0.6,1-42.5-22.1-43.6-20.1c-0.9,1.6,28.2,13.3,26.9,15.5" style="fill: none; stroke: rgb(41, 52, 62); stroke-width: 3.5; stroke-linecap: round; stroke-linejoin: round;"/>
		<path class="st2" d="M760.4,310c-2,3.5,50.5,24.3,48.4,27.9c-1.5,2.5-41.6-22.6-43.1-20c0,0,42.1,23.1,41.6,24&#10;&#9;&#9;&#9;c-1.1,1.9-39.2-20-40.2-18.3c-0.5,0.9,37.6,18.2,36.1,20.9c-0.4,0.7-34.8-17.7-35.9-15.9c-0.4,0.7,34.7,19.6,34.5,19.9&#10;&#9;&#9;&#9;c-1.4,2.5-32.1-16.9-33.5-14.3c-0.4,0.7,30.5,17.3,30.4,17.5c0,0-32.3-15.8-33-14.7c-0.2,0.3,32.3,16.5,31.3,18.1&#10;&#9;&#9;&#9;c-0.2,0.3-31.5-14.6-31.8-14.1c-0.3,0.6,27.5,15.9,27.5,15.9s-25.8-12.8-26.8-11.2c-0.3,0.6,23.5,12,22.8,13.2&#10;&#9;&#9;&#9;c-0.6,1-21.7-9.9-22.3-8.8l21,12.1c-0.8,1.5-22.6-9.4-23.2-8.3c-0.2,0.3,17.1,9.9,17.1,9.9c-0.6,1.1-19.1-8.1-19.7-7&#10;&#9;&#9;&#9;c-0.5,0.9,16.5,8.3,16,9.2c0,0-17.8-6.9-18.3-6c-0.1,0.2,16.1,8.7,15.9,9.2c-0.8,1.3-16.5-7-17.3-5.7c-0.3,0.5,14.8,7.4,14.3,8.3&#10;&#9;&#9;&#9;c-0.2,0.4-15.7-5.5-15.9-5.1c0,0,11.6,5.7,11.2,6.4c0,0-12.4-3-12.4-3c-0.1,0.1,9.2,4.5,8.9,5.1c0,0-11.4-1.6-11.4-1.6&#10;&#9;&#9;&#9;c0,0,8.2,4.5,8.1,4.7c-0.1,0.3-11.1-2.8-11.4-2.2c0,0.1,6,3.3,5.9,3.4c-0.2,0.4-7.9-0.4-8-0.2c0,0,1.9,1,1.8,1.1" style="fill: none; stroke: rgb(41, 52, 62); stroke-width: 3.5; stroke-linecap: round; stroke-linejoin: round;"/>
		<path class="st2" d="M798.7,68.9l26.5,15.3c0,0-45-26-47-22.5c-0.5,0.8,63.6,31.2,61.2,35.3c-1.5,2.7-70.5-42.5-73.4-37.5&#10;&#9;&#9;&#9;c-1.9,3.3,84.1,44.7,82.4,47.6L757.2,59c0,0,98.4,49.9,95.4,55.1c-4.1,7.2-102.5-55-102.5-55c-1.3,2.2,164.8,88.9,162.1,93.6&#10;&#9;&#9;&#9;c0,0-169-102.1-173.1-95c-1,1.8,178.2,94.1,174.4,100.7c-4.4,7.6-176.7-106.6-180.4-100.1c0,0,182.2,99.1,179.5,103.7L727.2,60&#10;&#9;&#9;&#9;c-8.6,14.9,185.8,98.5,182,105.1c-2.5,4.4-183.9-115.3-190.1-104.8c0,0,204.7,107.7,200.1,115.5c0,0-193.4-128.8-202.8-112.6&#10;&#9;&#9;&#9;c-1.9,3.4,217.6,121.4,215.8,124.6C930,191.8,715.4,57.7,711.3,64.7c-1.1,1.9,227.9,122.2,223.9,129.2&#10;&#9;&#9;&#9;c-2.7,4.6-226.3-134.3-229.9-128.1c-10.8,18.8,235.5,135.9,235.5,135.9C938.5,205.7,699,67.2,699,67.2&#10;&#9;&#9;&#9;c-4.8,8.4,244.5,139.6,243.8,140.8C942.5,208.4,699.4,61.6,695,69.3c-9.2,15.9,249.6,144.1,249.6,144.1S692.7,71.8,692.6,72.1&#10;&#9;&#9;&#9;c-10.7,18.5,264.9,130.4,255.1,147.3c0,0-256.8-151.7-260.2-145.7c-3.7,6.4,261.4,150.9,261.4,150.9&#10;&#9;&#9;&#9;c-6.4,11.1-266.5-148.8-266.5-148.8c-11.1,19.2,279.8,132.8,267.4,154.4c0,0-268.9-155.8-271.4-151.5&#10;&#9;&#9;&#9;c-3.2,5.5,277.8,139.5,268.8,155.2C936.5,252.4,683.3,67.1,675,81.5c-12.4,21.4,274.7,158.6,274.7,158.6&#10;&#9;&#9;&#9;c-9.3,16-277.4-156.4-277.9-155.5l277.6,160.3C941.1,259,682.2,63.7,668.6,87.4c-9.7,16.8,280.9,154.2,277.5,160.2&#10;&#9;&#9;&#9;c-1.5,2.5-282.6-158-282.6-158c-12.3,21.3,283.3,162.8,283,163.4c0,0-275.4-172.4-283-159.2c0,0,291.8,144,281.2,162.4&#10;&#9;&#9;&#9;C941.6,261.4,660.5,95.9,660,96.9c0,0,298.2,140.7,284.5,164.3C935.1,277.4,658.7,96.7,656.8,100c-3.6,6.3,296,148.9,286.4,165.4&#10;&#9;&#9;&#9;c-1.5,2.6-276-185-289-162.5c0,0,297.7,141.8,284.7,164.4c-1.4,2.4-283.3-168.2-287.2-161.6c-1.7,3,299.5,147.6,288.5,166.6&#10;&#9;&#9;&#9;c-8.8,15.2-297.1-179.8-302.8-170.1C633,110,936.8,272.5,935.8,274.4c-13.5,23.4-308.9-173.6-308.9-173.6&#10;&#9;&#9;&#9;c-3.1,5.4,306.8,177.1,306.8,177.1c-6.8,11.8-307.1-197.2-317.6-179C606.7,115,943.6,264,933.2,282c-4,7-317.2-195.5-324.8-182.4&#10;&#9;&#9;&#9;c-8.8,15.3,331,164.7,319.6,184.5c-7.4,12.8-317.4-199-326.4-183.3c-0.1,0.1,331.2,173.9,323.7,186.9&#10;&#9;&#9;&#9;c-2,3.4-327.9-185.2-327.9-185.2c-7,12.1,324.2,187.2,324.2,187.2c-8.3,14.3-326-189.3-328.6-184.8l326.4,188.4&#10;&#9;&#9;&#9;c-9.1,15.7-330.2-185.6-330.2-185.6c-7.1,12.4,333.5,180,328.1,189.4c-12.9,22.3-329.8-186.3-329.8-186.3&#10;&#9;&#9;&#9;c-11,19,326.1,187.8,325.9,188.2c0,0-322.6-197.4-329.2-185.9c0,0,324.9,184,323.4,186.7C899.1,314,583,110.6,580.3,115.3&#10;&#9;&#9;&#9;c-1.8,3.1,335.1,167.4,323.8,187c-9.3,16.2-328.1-186.8-329-185.2c0,0,326.8,181.8,323.8,186.9c-6.7,11.6-327.3-184.2-327.3-184.2&#10;&#9;&#9;&#9;c-8.8,15.2,339.9,160.7,324.5,187.3c0,0-318.6-197.4-326.4-183.9c-2.8,4.8,321.3,185,321.1,185.4&#10;&#9;&#9;&#9;c-10,17.3-321.4-181.4-321.4-181.4c-8,13.9,322.8,164,313.1,180.8c-2,3.5-311.9-189-317.5-179.2&#10;&#9;&#9;&#9;c-7.3,12.6,322.7,162.1,312.2,180.3c-10.1,17.5-313.7-176.1-313.7-176.1s313.5,160.9,304.8,176c-0.7,1.2-297.7-189-307.1-172.6&#10;&#9;&#9;&#9;c-1,1.7,301.7,174.2,301.7,174.2S570.5,126.7,562,141.4c-1.1,1.9,302.8,149.3,291.8,168.4c-5.4,9.4-285.7-182.5-295.1-166.2&#10;&#9;&#9;&#9;c-4.8,8.4,296.7,149.3,287.2,165.8c-3,5.2-275.2-179.9-286.4-160.5c-2.6,4.5,288.3,141.3,277.4,160.2&#10;&#9;&#9;&#9;c-3,5.2-279.4-156.3-279.4-156.3c-11.9,20.6,282.9,134.1,270.2,156c-4.7,8.2-270-153.9-271.2-151.9&#10;&#9;&#9;&#9;c-11.2,19.3,263.3,152,263.3,152s-259.5-165-267.9-150.5c-10.7,18.5,268.1,149,265.6,153.3c-10.3,17.8-274.6-153.7-274.6-153.7&#10;&#9;&#9;&#9;c-2.8,4.9,287.6,136.5,274.8,158.6c-9.3,16.1-270-172.5-279-156.8c-9.3,16.2,291.2,139.5,278.8,161&#10;&#9;&#9;&#9;c-5.3,9.2-274.6-175.7-283.8-159.8c-6.1,10.6,287.1,156.3,283,163.4c-3.7,6.3-289.6-162.9-289.6-162.9s300.3,142.7,287,165.7&#10;&#9;&#9;&#9;c-9.2,15.9-292.2-163.6-292.2-163.6c-12.8,22.2,296.8,155.9,290.1,167.5C801,349.9,515.7,165.1,515.7,165.1&#10;&#9;&#9;&#9;c-7.1,12.3,299.4,165.3,296.2,171c-11.5,20-285.2-189.5-298-167.3c0,0,245.2,136.4,243,140.3c-2.8,4.8-237.5-155.7-247.4-138.7&#10;&#9;&#9;&#9;c-5.6,9.7,243.4,136.4,241.6,139.5c-11.3,19.5-238.4-146.1-244-136.4c-9.3,16,244.8,118.7,235,135.7&#10;&#9;&#9;&#9;c-6,10.4-235.7-144.2-241.2-134.6c-2.9,5.1,241.1,121.2,233.3,134.7L499.8,178.8c-4.3,7.4,227.9,128.9,226.7,130.9&#10;&#9;&#9;&#9;c-10,17.4-229.2-128.1-229.5-127.5c-2.6,4.5,231.6,111.6,222,128.2c-1.2,2-219-136-225.4-125c-7.2,12.5,227,111.3,218.4,126.1&#10;&#9;&#9;&#9;c0,0-217.8-129-221-123.5c-5.5,9.5,228.3,112.1,219.8,126.9C705,325,488.5,191.1,488.5,191.1C486.1,195.3,707,317.2,707,317.2&#10;&#9;&#9;&#9;c-8.1,14-215.1-134.2-221.3-123.5c-0.8,1.4,231.5,110.8,221.6,127.9c-0.3,0.6-216.8-139.5-224.9-125.4&#10;&#9;&#9;&#9;c0,0,226.6,113.4,219.1,126.5c0,0-211.9-134.8-219.1-122.2c-2.3,4,219.3,121.4,217,125.3c-10.2,17.7-206.8-139.6-217.3-121.3&#10;&#9;&#9;&#9;c-7.6,13.1,216.9,117.2,213.4,123.2C690.6,336.1,488.2,192,479,207.9c-1.1,1.8,216.4,119.4,214,123.6c0,0-212.9-128.4-217-121.2&#10;&#9;&#9;&#9;c-1.5,2.6,213.3,122.1,212.8,122.9c-0.9,1.5-208.3-123.3-211.8-117.2C467.4,232.5,685,336,685,336&#10;&#9;&#9;&#9;c-1.9,3.4-207.2-120.9-209.8-116.4c-3.6,6.3,211.9,101.2,202.7,117c-3.3,5.7-201.5-112.2-201.5-112.2&#10;&#9;&#9;&#9;c-5.5,9.5,202.2,104.7,197,113.7c-0.1,0.2-191.8-122.1-198.8-110.1C472.6,231.7,668.4,340,668.4,340S482.1,220.7,474.9,233.2&#10;&#9;&#9;&#9;l188.6,108.9l-187.7-104c-8.4,14.5,182.2,102.5,181,104.5c-7.8,13.5-177.3-105.3-180.6-99.6c-8.4,14.6,181.1,85.2,172.7,99.7&#10;&#9;&#9;&#9;c-3,5.1-174.8-96.4-174.8-96.4c-1.5,2.6,174.9,86.1,168.4,97.2c0,0-159.3-101.2-165.5-90.4c-3.2,5.6,97.3,56.2,97.3,56.2&#10;&#9;&#9;&#9;c-4,6.9-94-50.5-94.5-49.6c-1.2,2.1,85.5,49.4,85.5,49.4s-84.4-48.4-86.2-45.2c-3.6,6.3,83.3,40.4,80,46.2&#10;&#9;&#9;&#9;c-1.3,2.2-76.6-39.7-76.6-39.7c-2.1,3.6,69.8,37.3,68.5,39.6c0,0-60.4-36.7-63.3-31.6c-1.4,2.4,54.5,31.5,54.5,31.5&#10;&#9;&#9;&#9;s-42.5-21.2-43.1-20.2c0,0,28.8,15.2,28.2,16.3" style="fill: none; stroke: rgb(41, 52, 62); stroke-width: 3.5; stroke-linecap: round; stroke-linejoin: round;"/>
		<path class="st2" d="M886.8,114c0,0,14.7,8.4,14.7,8.5c-0.3,0.6-23.5-9.2-23.5-9.2c-0.8,1.4,32,18.2,31.9,18.4&#10;&#9;&#9;&#9;c-0.6,1-40.8-18.8-40.8-18.8c-1.4,2.3,43.2,24.8,43.1,24.9c-2,3.4-45.1-23.6-45.9-22.2c-1.4,2.4,46.4,26.8,46.4,26.8&#10;&#9;&#9;&#9;C910.8,145.6,859,116,859,116c-0.1,0.2,56.9,29.5,55.4,32c-2.8,4.8-57.8-32.6-59.4-30c-0.3,0.5,59.5,33,58.9,34" style="fill: none; stroke: rgb(41, 52, 62); stroke-width: 3.5; stroke-linecap: round; stroke-linejoin: round;"/>
	</g>
	<g class="st1">
		<path class="st3" d="M575.5,299.1c-1.8,3.1,58.7,31.4,57.6,33.2c-0.2,0.3-54.5-34.9-56.5-31.5c-1.3,2.3,53.1,30.7,53.1,30.7&#10;&#9;&#9;&#9;c-0.7,1.2-48.5-32.3-50.9-28.1c-2,3.5,51.1,28.7,50.7,29.3c0,0-44.5-29.3-46.5-25.8c-1.6,2.8,41.7,23.7,41.6,24&#10;&#9;&#9;&#9;c-0.2,0.4-39.6-26.3-41.3-23.4c0,0,43.4,20.6,41.4,23.9c0,0-38.8-21.8-39-21.6c0,0,37,19.6,36.2,20.9&#10;&#9;&#9;&#9;c-0.9,1.6-30.5-19.5-31.9-17.1c-1.2,2.1,25.3,14.3,25.1,14.5c-0.9,1.6-21.3-13.7-22.2-12.1c-0.1,0.2,19.9,10.3,19.4,11.2&#10;&#9;&#9;&#9;c0,0-17.5-11.2-18.2-10c-0.6,1,16.2,8.6,15.9,9.2c0,0-12.4-7.8-12.8-7c-0.4,0.6,11.3,6.2,11.1,6.4" style="fill: none; stroke: rgb(0, 178, 204); stroke-width: 0.9; stroke-linecap: round; stroke-linejoin: round;"/>
		<path class="st3" d="M758,299.9c-1.8,3.1,46.7,24,45.4,26.2c-1.1,2-43.8-29-45.9-25.5c-1.9,3.3,44.4,23.3,43.4,25.1&#10;&#9;&#9;&#9;c-0.3,0.5-41.6-22.8-41.6-22.8l42.6,24.6c-1.9,3.2-41.3-23.6-41.5-23.2c-0.6,1,41,20.8,39.7,22.9c0,0-37.9-25.2-39.7-22.1&#10;&#9;&#9;&#9;c-1.8,3.2,39.8,23,39.8,23s-38.9-21.5-39.1-21.1c-1.9,3.3,39.5,22,39.2,22.6c-1.8,3.1-37.6-20.6-37.6-20.6&#10;&#9;&#9;&#9;c-1.1,1.9,38,19.3,36.9,21.3c0,0-36.9-21.1-37-20.9c-1.4,2.5,36.9,19.8,36.3,20.9c-1.3,2.3-34.6-21.8-36-19.4&#10;&#9;&#9;&#9;c-1.5,2.7,38.9,18.8,37.3,21.5c-0.4,0.7-37.2-20.1-37.2-20.1c-1.3,2.3,35.6,18.7,34.8,20.1c-1.2,2.1-35.7-21.2-36.3-20.1&#10;&#9;&#9;&#9;c-1.5,2.7,38.2,21.9,38.2,22c-1.5,2.7-36.7-20.2-36.7-20.2c-0.5,0.9,33.3,19,33.2,19.2c-1,1.8-31.1-19.6-32.1-17.8&#10;&#9;&#9;&#9;c0,0,34.3,16.3,32.8,18.9c-1.5,2.6-32.4-17.9-32.4-17.9s32.2,17.7,31.8,18.4c-1.4,2.4-31.6-17.8-31.9-17.2&#10;&#9;&#9;&#9;c-0.5,0.9,32,17.5,31.6,18.2c-1,1.7-31.8-18-31.8-18s32.4,17.4,31.8,18.4c-0.4,0.6-29.9-17-30.2-16.5&#10;&#9;&#9;&#9;c-1.3,2.3,30.7,16.5,30.2,17.4c-1.2,2-29.8-18.5-30.9-16.5c-0.8,1.5,31.8,16.1,30.9,17.8c-0.5,0.9-32.8-18.3-32.8-18.3&#10;&#9;&#9;&#9;c-0.5,0.9,32.7,18.1,32.4,18.7c-0.1,0.1-30.1-19.1-31.4-16.9c-1.3,2.2,28.1,16.2,28.1,16.2c-1,1.7-25.6-15.4-26.1-14.5&#10;&#9;&#9;&#9;c-1,1.7,29,15,28.3,16.3c-1.4,2.4-28.7-16-28.9-15.6c-0.5,0.9,28.9,14.3,27.9,16.1c0,0.1-28.7-16.5-29.1-15.8&#10;&#9;&#9;&#9;c-0.8,1.4,28.6,14.5,27.7,16c-1.1,1.9-25.8-13.7-25.8-13.7c-0.4,0.7,27,15.6,27,15.6c-0.4,0.8-27.4-15.2-27.4-15.2&#10;&#9;&#9;&#9;c-0.1,0.2,25.2,13.5,24.8,14.3l-26-14.1c-1.1,2,25.2,13.1,24.6,14.2c-0.5,0.9-23.7-15.1-24.9-13.2c-0.9,1.6,24.2,14,24.2,14&#10;&#9;&#9;&#9;c-0.4,0.6-21.2-12.9-22.1-11.5c-0.7,1.3,23.1,11.1,22.1,12.8c-0.7,1.2-22.8-12.7-22.8-12.7c-0.6,1.1,24.3,13.8,24.2,14&#10;&#9;&#9;&#9;c-0.9,1.6-26.2-14.5-26.3-14.4c-0.7,1.1,23.6,13.4,23.5,13.6c-0.5,0.9-20.9-13.3-21.8-11.8c0,0,21,11.3,20.7,11.9&#10;&#9;&#9;&#9;c-0.1,0.2-20.6-11.5-21-10.8c0,0,23.5,12.9,23.2,13.4c0,0-21.4-12.4-21.8-11.8c0,0,21,10.9,20.5,11.8&#10;&#9;&#9;&#9;c-0.1,0.2-22.7-11.9-22.7-11.9c-0.8,1.4,20.6,10,19.8,11.4c-0.3,0.5-18.2-11-18.7-10.2c-0.8,1.3,19.8,11.5,19.8,11.5&#10;&#9;&#9;&#9;c0,0.1-18.5-12-19.3-10.5c-0.1,0.2,17,9.8,17,9.8s-16.8-10.4-17.5-9.2c-0.1,0.1,17.5,10.1,17.5,10.1c0,0-16.9-9.3-17.3-8.7&#10;&#9;&#9;&#9;c-0.6,1,19.3,10,18.8,10.9c0,0-21-12.5-21.6-11.4c-0.8,1.3,18.3,10.6,18.3,10.6c-0.2,0.3-17.4-10.9-18.2-9.4l19.9,11.5&#10;&#9;&#9;&#9;c-0.2,0.4-18.2-9.8-18.3-9.5c-0.4,0.8,16.2,8.4,15.8,9.1c-0.4,0.8-16.4-10-17-9.1c-0.6,1,18.2,10.1,18,10.4&#10;&#9;&#9;&#9;c0,0-17.4-11.5-18.2-10.1c-0.5,0.8,18,10.4,18,10.4c-0.6,1-19.3-10.9-19.4-10.8l18,10.4c0,0-17.1-10.4-17.5-9.6&#10;&#9;&#9;&#9;c-0.3,0.6,17.2,10,17.2,10c-0.1,0.1-16.5-9.1-16.5-9.1c-0.1,0.2,15.9,7.8,15.3,8.9l-16.1-8.5c-0.3,0.6,15.6,7.5,15,8.6&#10;&#9;&#9;&#9;c-0.3,0.5-16.1-8.1-16.1-8.1c0,0.1,15.2,8.7,15.2,8.8c-0.3,0.6-13.7-7.3-13.7-7.3c-0.4,0.7,14,7.6,13.8,8&#10;&#9;&#9;&#9;c-0.3,0.5-14.2-8.6-14.8-7.6c0,0,15,8.1,14.7,8.5c-0.5,0.8-13.1-7.6-13.3-7.2c0,0,14.4,8.1,14.3,8.2c-0.5,0.9-15.4-9.4-16.1-8.2&#10;&#9;&#9;&#9;c-0.5,0.8,15.1,8.7,15.1,8.7c-0.1,0.2-13.7-7.9-13.9-7.5c-0.4,0.6,13.3,6.5,12.8,7.4l-14.7-7.3c0,0,12.8,7.3,12.8,7.4&#10;&#9;&#9;&#9;c-0.2,0.3-11.7-5.6-11.8-5.4c-0.3,0.5,10.1,5.6,10,5.8c-0.1,0.2-10.3-5.8-10.6-5.3c0,0,12.4,6.4,12.1,7c0,0-11.9-6.7-12.3-6.1&#10;&#9;&#9;&#9;c0,0,9.9,5,9.6,5.5c-0.3,0.6-10.1-5.7-10.2-5.5c-0.4,0.7,10.3,5.1,10,5.8c-0.4,0.7-9.1-5-9.5-4.4c0,0,9.2,5.1,9.1,5.2&#10;&#9;&#9;&#9;c0,0-10.2-6.1-10.6-5.5c-0.3,0.5,10.4,5.8,10.3,6c-0.4,0.6-9.2-5-9.6-4.4c-0.3,0.5,9.2,4.6,8.9,5.1c-0.5,0.8-10.5-5.3-10.5-5.3&#10;&#9;&#9;&#9;s9.3,5.4,9.3,5.4c0,0-7.4-3.6-7.8-3c-0.2,0.4,5,2.9,5,2.9c-0.2,0.4-6.2-3-6.2-3c0,0,7.3,4.2,7.3,4.2c-0.2,0.4-7.7-4.7-8-4.2&#10;&#9;&#9;&#9;c-0.2,0.3,5.3,3.1,5.3,3.1s-5.7-3.2-5.8-2.9c-0.1,0.2,5.9,3.3,5.9,3.4c-0.2,0.4-6.3-3.3-6.5-3c-0.1,0.2,8.2,4.5,8.1,4.7&#10;&#9;&#9;&#9;c-0.2,0.3-8-3.7-8.2-3.4c-0.1,0.2,7.3,4.2,7.3,4.2c-0.4,0.6-8.6-4.8-8.8-4.5c-0.1,0.1,8.5,4.9,8.5,4.9c-0.1,0.1-7.9-4.1-8.1-3.6&#10;&#9;&#9;&#9;c-0.1,0.1,4.5,2.6,4.5,2.6s-3-1.3-3-1.1c-0.1,0.1,3.9,2.1,3.8,2.2c-0.1,0.2-4.3-1.9-4.4-1.6c-0.1,0.1,3.7,2,3.6,2.1&#10;&#9;&#9;&#9;c-0.1,0.2-4.2-1.6-4.2-1.6c-0.1,0.2,4.3,2.5,4.3,2.5c-0.1,0.2-4.5-1.9-4.5-1.8c0,0.1,3.4,1.8,3.3,1.9c-0.2,0.4-5.2-2.2-5.2-2.2&#10;&#9;&#9;&#9;s4.5,2.5,4.5,2.6c0,0-4-1.1-4-1.1s3.6,2,3.6,2.1c-0.1,0.1-5.1-2.3-5.2-2.1c0,0,3.8,2.1,3.8,2.2c-0.1,0.2-2.9-1.3-2.9-1.2&#10;&#9;&#9;&#9;c0,0,1.4,0.8,1.4,0.8" style="fill: none; stroke: rgb(0, 178, 204); stroke-width: 0.9; stroke-linecap: round; stroke-linejoin: round;"/>
		<path class="st3" d="M796,68.7c0,0,13.6,6.8,13.2,7.6c-0.8,1.4-17.7-9.6-17.7-9.6l23.3,13.5c0,0-31-17.7-31.4-17&#10;&#9;&#9;&#9;c0,0,37.9,19.2,36.7,21.2c-1.1,1.9-35.9-22.8-37-20.8l38.4,22.2l-43.6-24c-1.9,3.3,50,28.1,49.7,28.7&#10;&#9;&#9;&#9;c-2.5,4.3-52.7-30.6-53.1-29.8c-2.6,4.4,53.6,31,53.6,31c-0.2,0.4-55.6-31.6-55.8-31.2c-0.8,1.4,59,34.1,59,34.1&#10;&#9;&#9;&#9;c-0.3,0.4-61.7-38-63.3-35.2c-0.5,0.9,65.1,36.3,64.5,37.2c-1.6,2.7-64.4-42.5-67.2-37.7c-3.4,5.9,69.2,39.3,68.9,39.8&#10;&#9;&#9;&#9;c-1.5,2.5-70.6-41.4-71.2-40.3c-2.7,4.7,77.5,39.2,75.1,43.3c-0.7,1.3-77.9-44.5-78.1-44.2c-1.4,2.4,76.1,44,76.1,44&#10;&#9;&#9;&#9;s-74-50.2-77.7-43.8c0,0,82.9,41.3,80.1,46.2c0,0-80.2-53-83.7-46.9c-4.1,7.1,85.3,47.9,84.7,48.9c-2.7,4.7-86.7-48.9-86.7-48.9&#10;&#9;&#9;&#9;c-4.2,7.3,91.1,47.4,88.9,51.3c0,0-89.9-52.8-90.9-51.2c-4.5,7.8,94.4,53.3,93.9,54.2c-2.6,4.5-97-55-97-55&#10;&#9;&#9;&#9;c-2.7,4.6,96.9,56,96.9,56c-2.1,3.6-92.8-60.3-95.9-55c-0.9,1.6,102.7,49,98.2,56.7c0,0-97.5-63.2-100.9-57.3&#10;&#9;&#9;&#9;c-2.5,4.3,103.6,54.6,101.3,58.5c-4.8,8.3-102-59.7-102.7-58.4c-4.1,7.1,106.3,56.8,104.3,60.2c-4,6.9-103.5-65.6-106.5-60.3&#10;&#9;&#9;&#9;c-0.1,0.1,108.9,57.7,106.7,61.6c-3.3,5.7-108.7-61.9-108.7-61.9c-4.8,8.3,111.4,60,109.5,63.2c0,0-110.4-64.3-110.9-63.5&#10;&#9;&#9;&#9;c-3.6,6.3,169.5,85.2,164.1,94.7c0,0-162.2-98.2-164.6-94c-5.4,9.3,165.6,95.6,165.6,95.6c-1,1.7-164.1-103.6-168.1-96.6&#10;&#9;&#9;&#9;c0,0,174.9,84.4,167.7,96.8c-7.3,12.7-166.1-99.1-168-95.8c-4.2,7.4,168.2,97.1,168.2,97.1C898.7,163,736.8,47,731.8,55.7&#10;&#9;&#9;&#9;c0,0,179.8,85.7,171.9,99.3c-6.6,11.5-171.2-97.9-171.2-97.9C725.6,69.1,902,155,902,155c-1.9,3.3-172.4-98.7-172.4-98.7&#10;&#9;&#9;&#9;c-4.1,7.1,171,98.1,170.7,98.5c0,0-163.9-111.7-171.7-98.3c-2.1,3.6,176.1,95.9,173.6,100.2c-8.4,14.6-169.4-111.6-175.9-100.4&#10;&#9;&#9;&#9;c-7.1,12.3,173.7,100.3,173.7,100.3S726.2,55.5,725.3,57c-7.9,13.6,174.6,100.8,174.6,100.8c-8,13.9-165.7-112.9-173.4-99.6&#10;&#9;&#9;&#9;c-5.7,9.9,178.9,90.6,173.4,100.1c-1.5,2.5-167-115-175.2-100.8c-4.4,7.5,176.6,101.8,176.5,101.9C897.6,165.7,723.4,58,723.4,58&#10;&#9;&#9;&#9;c-3.2,5.5,183.3,91.1,176.9,102.1c-7.6,13.1-178.4-102-178.4-102c-7.6,13.1,175.8,101.5,175.8,101.5c-5.2,9-174-110-178.8-101.7&#10;&#9;&#9;&#9;c-6.9,11.9,181.4,104.8,181.4,104.8c-0.6,1.1-181.9-108.6-184-104.8c-6.6,11.5,188.3,95.5,182.6,105.4l-182.9-105&#10;&#9;&#9;&#9;c0,0,180.3,104.1,180.3,104.1C896,163.2,721.3,53.5,717.8,59.6c0,0,182.8,101.9,181.2,104.6c0,0-176-115.9-182.5-104.5&#10;&#9;&#9;&#9;c-5.7,9.8,191.4,104.1,188.6,108.9C898.9,179.3,714.4,60,714.4,60c0,0,207,103.7,200.2,115.6c-0.7,1.3-192.5-132.9-202.2-116.1&#10;&#9;&#9;&#9;c-6.1,10.6,210.9,106.7,204.3,118c0,0-202.8-124.6-206.6-118c-1.7,2.9,213.8,113.7,209.6,121c-0.8,1.4-207-127.3-210.7-120.9&#10;&#9;&#9;&#9;c-9.6,16.6,213.7,118.9,211.8,122.3C919.4,184.3,717.3,51,711.2,61.6c-2.7,4.7,213,114.2,209.2,120.8&#10;&#9;&#9;&#9;c-5,8.7-209-129.3-213.3-121.9c-6.1,10.6,217.9,118.4,214.7,124l-214.6-123c-1.1,1.9,224.2,114.3,217.7,125.7&#10;&#9;&#9;&#9;c-5.7,9.8-210-141.2-219.1-125.5C698.1,75.1,928.2,184,925.6,188.5C917.8,201.9,709,52.1,703.9,61&#10;&#9;&#9;&#9;c-1.4,2.4,232.8,111.6,222.9,128.7C917.5,205.8,712.7,49,704.7,62.8c-0.9,1.5,231.3,115,223.3,128.9L704.6,63.3&#10;&#9;&#9;&#9;c-2.7,4.6,230.2,119,224.2,129.4c-9.5,16.5-221.5-142.2-228.3-130.4c-9.5,16.4,233.8,127.2,230.4,133&#10;&#9;&#9;&#9;C924.8,206,711.3,50.1,703,64.3c-0.2,0.3,228.1,128.9,226.9,131c-1.1,1.9-222.6-145.8-230.5-132C694.9,71.2,933,191.2,930,196.4&#10;&#9;&#9;&#9;c-4.7,8.1-229.9-133.7-230.7-132.3c-4.7,8.1,233.5,130,231.4,133.6c-10,17.3-228.4-143.8-234-134&#10;&#9;&#9;&#9;c-3.2,5.5,240.8,122.2,233.5,134.8c-7,12.1-226.1-145.5-233.1-133.5c0,0,243.6,121.8,235.5,135.9&#10;&#9;&#9;&#9;c-7.4,12.8-230.7-143.5-235.7-134.9C687.9,81.8,934.3,200,933,202.4C925,216.1,699.6,59.7,695.6,66.6l238.2,137.5&#10;&#9;&#9;&#9;c-9.8,17-235.3-145.3-239.7-137.7C684.4,83.3,943,189.9,934.3,205.1c-4.1,7.2-232-156.3-242.1-138.8&#10;&#9;&#9;&#9;c-9.9,17.2,247.4,132.8,243.1,140.3c-2.5,4.2-243.7-140.8-244.1-140.1c-3.5,6.1,242.7,140.1,242.7,140.1&#10;&#9;&#9;&#9;C924.9,222,698.2,56.8,691.9,67.7c-4.8,8.4,254,123.8,244.1,141c-9,15.6-246.9-142.8-247.6-141.6c0,0,249.2,143.1,248.9,143.7&#10;&#9;&#9;&#9;C929.6,224.3,690.3,69,690.3,69S940.1,201.6,935,210.3c0,0-234.5-159.4-245.1-141c-7.3,12.6,249.6,139,247.4,142.8&#10;&#9;&#9;&#9;c-1.4,2.4-248.7-145.3-249.8-143.5C678.4,84.5,939.1,207,936.1,212.2c-1.5,2.6-248.3-146.3-250-143.5&#10;&#9;&#9;&#9;C678.3,82.3,938.3,208.9,935.9,213c-9.7,16.8-248.5-142.9-248.5-142.9s258.9,129.7,250.3,144.5C926,235.1,696,52.9,686,70.1&#10;&#9;&#9;&#9;c-6.1,10.6,251.5,145.2,251.5,145.2C925.3,236.4,686.2,65.8,683.8,69.9c-6.3,10.9,253.9,146.6,253.9,146.6&#10;&#9;&#9;&#9;c-5.9,10.1-247.4-153.4-252.4-144.8c-10.7,18.6,262.4,127.5,252,145.5c-3.8,6.6-253.2-149.7-255-146.7&#10;&#9;&#9;&#9;c-5.9,10.2,256.3,148,256.3,148L684.6,72.7c-5.6,9.7,256.8,140.4,253.4,146.3c0,0-246.5-160.6-254.9-146.1&#10;&#9;&#9;&#9;c-12.3,21.2,258.9,142.6,255.9,147.7c-2.2,3.8-250.8-162.9-259.2-148.5L939,221.8L681,73.6C675.7,82.8,939.1,220,937.9,222&#10;&#9;&#9;&#9;c0,0-258.6-151-259.6-149.3C673.5,81,944,212,938,222.5C935,227.6,686.2,60.1,678.5,73.3C671,86.3,945.4,212.3,938.8,223.6&#10;&#9;&#9;&#9;c-11,19.1-260.2-151.1-260.9-149.9C668.7,89.8,939,224.5,939,224.5S687.9,60.5,679.1,75.6c0,0,271.5,130.2,259.9,150.1L677.8,75.9&#10;&#9;&#9;&#9;c-12.4,21.4,264.6,139,258.7,149.3c-9.9,17.1-248.4-166.5-258.7-148.8c-4.4,7.6,259.6,149.9,259.6,149.9&#10;&#9;&#9;&#9;C926.4,245.4,676.8,77.1,676.8,77.1s264.7,143.9,260.9,150.6C937.4,228.3,678,73.6,675.8,77.5l262.9,151.8&#10;&#9;&#9;&#9;C930,244.5,684.8,55.5,672.6,76.5c-11.7,20.3,264.8,152.9,264.8,152.9C925.7,249.8,678.1,68.6,672.8,77.8&#10;&#9;&#9;&#9;C666.5,88.7,942.5,227,939.7,231.9c0,0-258-170.5-268-153.3C667,87,936.5,231.5,936.5,231.5C926,249.7,670.7,79.2,670.7,79.2&#10;&#9;&#9;&#9;s273.1,143.3,266.9,154.1c-10.9,18.9-255-172.6-266.4-152.9c-4.5,7.8,277,132.9,265.3,153.2c-8.4,14.6-268.3-153.5-268.3-153.5&#10;&#9;&#9;&#9;s283.4,135.5,271.2,156.6c-8.8,15.2-263-166.4-269.9-154.4l268,154.7C932.3,245.8,673,71.3,667.3,81.4&#10;&#9;&#9;&#9;c-10.3,17.8,279.3,144.1,271.9,157C932.9,249,681.6,59.5,668.3,82.4c-5,8.7,274.2,144.3,268.1,154.8c0,0-268.8-159.4-271.2-155.3&#10;&#9;&#9;&#9;C652.3,104.4,949,219.6,937.7,239.3c-1,1.7-265.7-165.6-271.5-155.5c-12,20.7,274,153.7,272,157.1&#10;&#9;&#9;&#9;C936.9,243.2,667.4,76.8,663.8,83c-5,8.6,275.3,152.2,272.4,157.2C934.9,242.4,676.3,64,664.4,84.5c0,0,274.9,150.1,271.2,156.6&#10;&#9;&#9;&#9;C924.8,259.7,664.2,83,663.3,84.8c-4.5,7.8,273.9,155.9,272.9,157.6c0,0-270-160.3-272.5-156.1c-4.2,7.4,273.6,158,273.6,158&#10;&#9;&#9;&#9;c-9.2,16-263.3-179.2-275.2-158.5c-13,22.6,281.4,149.9,275.9,159.3c-0.4,0.7-264.2-179.9-276.4-158.8&#10;&#9;&#9;&#9;C655.2,97.5,944.1,228.3,935,244.1c0,0-265.7-171.2-273.6-157.5c-1.7,2.9,285,143.4,275.8,159.2l-275-157.9&#10;&#9;&#9;&#9;c-10.7,18.5,281.9,145.7,274.5,158.5C923.9,268.6,675.4,64.9,661.9,88.2c-1.1,1.9,274.9,153.8,272.8,157.5&#10;&#9;&#9;&#9;c0,0.1-275.2-159.1-275.6-158.5c-10.2,17.7,277.3,156.5,275.8,159.2c-4.2,7.2-267.6-173.2-276-158.6&#10;&#9;&#9;&#9;c-5.4,9.3,281.8,154.4,278.2,160.6c-3.3,5.7-275.4-158.5-275.4-158.5C649.5,110.9,935.4,248,935.4,248S669.9,68,657.7,89&#10;&#9;&#9;&#9;c-0.7,1.2,283.2,153.5,278.9,161c-2.7,4.7-273.3-163.9-276.3-158.7c-5.8,10.1,282.3,147.3,275.5,159c0,0-271.8-170-277.8-159.6&#10;&#9;&#9;&#9;c-5.2,9,282.4,153.8,278.4,160.7C924,272.7,657.2,90.7,657.2,90.7c-7.1,12.3,276.4,159.6,276.4,159.6&#10;&#9;&#9;&#9;c-7.8,13.5-277.7-160-277.7-160c-11,19.1,290.8,140.8,279.1,161.1C930.2,259.5,659.1,91,658.1,92.7&#10;&#9;&#9;&#9;c-3.8,6.5,279.1,151.7,275,158.8c0,0-264.1-179.7-276.3-158.6c0,0,288.7,143.3,278.6,160.8C928,266.5,662.8,80.2,655.5,92.9&#10;&#9;&#9;&#9;c-10.2,17.6,283.4,152,278.4,160.7c-11.7,20.2-272.1-172-279-160c0,0,282.6,157.2,280,161.7c-8.4,14.6-272.8-170.9-279.1-159.8&#10;&#9;&#9;&#9;C655,96.9,946.1,235.2,934,256.1c0,0-266.6-184.8-280.1-161.4c-9.7,16.7,288.3,144.4,278.7,160.9&#10;&#9;&#9;&#9;C921.3,275.3,661.9,81.8,654.1,95.3c-7.9,13.8,285,151,279.1,161.2C932,258.6,651.4,95,651.4,95c-3.6,6.3,284.1,153.1,279.3,161.3&#10;&#9;&#9;&#9;C917.4,279.4,654.7,95,653.5,97c-6.3,10.9,282.5,150.5,277.1,160c-9.7,16.7-268.8-179.8-279.9-160.6&#10;&#9;&#9;&#9;C638.8,117,942,240.3,931.5,258.5C921,276.8,657.4,90.3,652.7,98.5c-6,10.4,278.3,160.7,278.3,160.7&#10;&#9;&#9;&#9;c-6.7,11.6-272.9-175.9-281.2-161.5c-0.3,0.5,290.4,144.2,280.2,161.8c-2.2,3.9-271.1-177.6-280.6-161.1&#10;&#9;&#9;&#9;c-2.1,3.6,290.8,146.3,281.5,162.5c-8,13.8-281.6-162-281.6-162c-10.9,19,280.4,161.9,280.4,161.9&#10;&#9;&#9;&#9;C916.8,283,648.6,97.7,647.7,99.3c-9,15.7,288.9,148.4,280.9,162.2c-0.6,1.1-266.3-183.7-279.8-160.5&#10;&#9;&#9;&#9;c-9,15.6,280.7,162.1,280.7,162.1S648.8,101,648.3,102c-9.1,15.8,282.2,158.9,280.4,161.9c-6.3,10.9-267.9-184.8-281.4-161.5&#10;&#9;&#9;&#9;c-2.1,3.6,289.9,145.5,280.4,161.9c0,0-276.9-169.3-281.2-161.8c0,0,283.1,157.5,280.5,161.9C915,285.4,649.9,95.8,645.7,103&#10;&#9;&#9;&#9;c-10.8,18.7,284.5,158.3,281.9,162.7c-6.3,10.8-281.1-165.7-283.2-162.1c-0.3,0.5,291.3,148.2,282.6,163.2&#10;&#9;&#9;&#9;c-10,17.4-279.8-161.1-279.8-161.1c-8.6,14.8,278.8,161,278.8,161c-1,1.8-268.2-183.8-281.1-161.5l283.3,163.6&#10;&#9;&#9;&#9;c-12,20.8-284.3-163.2-284.3-163.2s286,154.3,281.3,162.4L636.4,101.8C626.2,119.4,929,261.3,924.9,268.4&#10;&#9;&#9;&#9;c0,0-287.8-172.9-290.9-167.5C619.9,125.3,928.8,262.7,925.1,269c0,0-292-176.6-296-169.7c-5.2,9.1,311.7,146.8,297.3,171.7&#10;&#9;&#9;&#9;c-12.7,22-287.4-189.3-297.7-171.4c-6.7,11.6,294.5,170,294.5,170C912,289,625.8,97.3,625,98.8C623.7,101,923.3,271,923.3,271&#10;&#9;&#9;&#9;c-5.1,8.9-292.5-183.1-299-171.8c-6.6,11.4,299.1,172.7,299.1,172.7c-1.6,2.8-300.5-180.3-303.8-174.6&#10;&#9;&#9;&#9;c-14.5,25.1,318.6,150.2,304,175.5c-8.8,15.3-303.9-175.1-303.9-175c-14,24.3,308.8,165.2,303.2,175C920,277.7,618,97.4,618,97.4&#10;&#9;&#9;&#9;c-3.5,6,308.6,165.5,303.1,175c-8.7,15.1-295-189.8-303.8-174.5c-14,24.2,315.2,160.5,305.9,176.6c-5.5,9.5-294.5-202.3-309-177.1&#10;&#9;&#9;&#9;c-14,24.3,309.4,169.9,305.6,176.4C905.8,298,622.1,79.1,611.8,96.9c-0.7,1.3,308.9,176.6,308.1,177.9c0,0-297.6-196.3-308.8-177&#10;&#9;&#9;&#9;c-6.9,12,310.3,177.1,309.4,178.6l-311-178.2c-0.9,1.6,314.6,166.5,308,177.9L608.5,98.7C594.9,122.3,921.7,273.2,918.9,278&#10;&#9;&#9;&#9;c-4.1,7.1-310.8-183.5-313.1-179.5c-10.2,17.6,311.6,179.9,311.6,179.9L602.9,97.7c-4.4,7.6,320.9,170.7,314.6,181.6&#10;&#9;&#9;&#9;C909.1,293.6,612.9,81,602.7,98.8c-3.7,6.4,314.2,181.4,314.2,181.4c-5.9,10.3-313.6-181.9-314.2-180.8&#10;&#9;&#9;&#9;c-10.1,17.4,314,181.3,314,181.3S605.2,91.3,600.9,98.8L914.8,280c-1.3,2.3-308.7-195.1-316.5-181.6&#10;&#9;&#9;&#9;c-8.9,15.4,328.4,160.2,315.7,182.2c-6.1,10.6-298.9-206-313.7-180.3c0,0,316.5,180.7,315.6,182.2c-4,6.9-311.7-191-316.6-182.4&#10;&#9;&#9;&#9;c0,0,316,180.1,315,181.8c-0.3,0.5-311.8-188.5-316-181.2c0,0,323.4,165.3,314.1,181.4c0,0-301.7-206.8-316.2-181.7&#10;&#9;&#9;&#9;c0,0,331.6,160,318,183.6c-1.6,2.8-315.6-189.6-319.2-183.4c-7.9,13.6,326.7,164.1,316.1,182.5c0,0-314.4-190-318.5-183&#10;&#9;&#9;&#9;c-5.8,10,326.7,170.8,318.9,184.1c0,0-316.8-184.4-317.9-182.5c0,0,328.6,163.2,317.1,183.1c-3.3,5.8-313.8-188.2-317.1-182.4&#10;&#9;&#9;&#9;C592.5,104,910,283.1,909.1,284.7c0,0-304.9-205-318-182.2c-8.5,14.7,321.8,177.1,318,183.6c-4.4,7.7-309.1-200.1-318.6-183.5&#10;&#9;&#9;&#9;l317.1,183.1c-3.2,5.6-316.5-181.9-316.5-181.9C587.9,109.3,906.8,286,906.8,286c-5.5,9.5-311.8-192.2-317.7-182.1&#10;&#9;&#9;&#9;c-11.7,20.3,322.5,173,316.8,182.9c-5.7,9.9-319-182.9-319-182.9l320.5,185c-5.7,10-321.2-184.7-321.2-184.7&#10;&#9;&#9;&#9;c-12.9,22.4,324.4,173.3,318.3,183.8c-10.1,17.5-312.1-193.1-317.9-183C578.7,118.7,905,288.7,905,288.7S595.1,90.9,586.6,105.5&#10;&#9;&#9;&#9;c-9.7,16.8,317.1,183.1,317.1,183.1c-1.1,2-317.6-187.6-319.8-183.6c-14.1,24.4,326.1,170.4,318.3,183.8&#10;&#9;&#9;&#9;c-10.6,18.3-316.4-183.2-317.1-181.9c-0.4,0.6,316.2,182.6,316.2,182.6L581.8,106.1c-14.7,25.4,321.6,185.7,321.6,185.7&#10;&#9;&#9;&#9;c-0.5,0.9-315.8-197-322.8-184.9c-7,12.1,323.7,177.3,319.6,184.5c-6,10.4-309.3-202.8-320.3-183.8&#10;&#9;&#9;&#9;c-12,20.7,327.4,167,317.8,183.5c-4.9,8.5-302.1-207.8-317-182.1c-12.1,21,330.6,163.1,318.6,183.9&#10;&#9;&#9;&#9;c-10.6,18.4-315.1-189.8-319-183.1c-9.2,15.9,331.4,162.3,318.9,184.1L577.8,109.2c-1.9,3.4,327.8,172.8,320.6,185.1&#10;&#9;&#9;&#9;c-1.7,3-321.8-184.7-321.8-184.7c-8.5,14.8,320.7,180.9,318.9,184.1L576.8,110.2c-14.1,24.4,325.3,174,319.3,184.4&#10;&#9;&#9;&#9;c0,0-311.3-198.3-319.8-183.5l317.2,183.1c0,0-304.2-202.4-316.1-181.8c-3.5,6,328.8,158.4,315.2,182&#10;&#9;&#9;&#9;c-11.4,19.8-317.2-181.9-317.2-181.9c-3.3,5.8,331.4,159.9,317.8,183.5C880.6,318,572.8,112,572.8,112&#10;&#9;&#9;&#9;c-1.4,2.5,319.5,184.4,319.5,184.4C880.4,317,577.9,105,573.2,113.1c-11.5,19.9,324.7,165.8,315.4,182.1&#10;&#9;&#9;&#9;C875.9,317,589.8,89.5,575,115c-9.9,17.1,312.4,180.3,312.4,180.3C874.2,318.2,573,114.3,573,114.3&#10;&#9;&#9;&#9;C560.8,135.5,889.8,296.7,889.6,297c-4.7,8.1-304.7-201.7-316.4-181.4c-4.8,8.4,319,171.3,313.4,181&#10;&#9;&#9;&#9;c-2.3,4-308.2-191.3-314.2-180.8c-4.9,8.5,327.4,156.4,313.3,180.9C873.2,318.3,583.4,94.9,571,116.4c0,0,324.1,166.5,315.2,182&#10;&#9;&#9;&#9;c-6.5,11.2-305.5-201.7-317-181.9c-3.4,5.9,313.5,181,313.5,181L571.2,118.2c-2.1,3.7,317.4,171.4,312.3,180.3&#10;&#9;&#9;&#9;c-1.1,2-314.1-182.1-314.8-181c-3.1,5.4,320.7,169.3,313.8,181.2C867.2,325.2,577.2,101.9,568,117.9&#10;&#9;&#9;&#9;c-13.3,23,324.2,156.7,311,179.6L568.6,119.5c-2.9,5,316.2,168.5,310.1,179c-1.4,2.4-310.4-178.9-310.4-178.9&#10;&#9;&#9;&#9;c-14.7,25.4,319,160.8,308.9,178.3c0,0-303.3-191.8-311.1-178.2c0,0,315.7,172.5,311.4,179.8c-8.9,15.4-308.3-181-310-178&#10;&#9;&#9;&#9;c0,0,317,159.3,306.7,177.1c-0.2,0.3-291.9-200.8-306.1-176.3c-10.9,18.9,310,172.7,307.3,177.4&#10;&#9;&#9;&#9;c-6.4,11.1-307.2-178.3-308.1-176.8c-1.5,2.6,315.4,161.7,306.6,177c0,0-303.6-187.5-309.3-177.5&#10;&#9;&#9;&#9;c-6.7,11.5,309.3,169.5,305.4,176.3c-4.8,8.3-298.1-188-305.4-175.4c-0.5,0.8,305.9,176.6,305.9,176.6c-0.4,0.7-304-174-304-174&#10;&#9;&#9;&#9;l302.1,174.4L564.9,125.8c-5.6,9.7,312.5,154.5,301.3,174c0,0-300.7-174.7-301.7-172.9l300.4,173.4c0,0-297.5-183.8-302.9-174.5&#10;&#9;&#9;&#9;c-7.1,12.3,307.7,165.3,302.4,174.6c-13.1,22.6-302.5-174.2-302.5-174.2s308.4,160.1,300.6,173.6c0,0-291.7-182.7-298.2-171.6&#10;&#9;&#9;&#9;c-13.2,22.8,295.5,170.6,295.5,170.6c-7.4,12.8-288.4-188.2-298-171.5c-3.2,5.5,302.5,162.9,297.4,171.7L564,129.9&#10;&#9;&#9;&#9;c-4,7,295.2,165,292.9,169.1c0,0-284.1-186-294-168.8c-10.7,18.6,294.7,170.2,294.7,170.2c-9.2,16-289-179-294.6-169.2&#10;&#9;&#9;&#9;c0,0,291.5,166.1,290.5,167.7c-8.7,15.1-285.5-175.5-290.5-166.9c-6.5,11.3,296.5,154,289,166.9c-3,5.2-289.5-171-291.6-167.3&#10;&#9;&#9;&#9;c-9,15.6,292.8,169,292.8,169c-3.6,6.2-289.2-177.6-294.2-169c-3.8,6.6,297.8,156.3,291,168c-3.2,5.5-284.1-176.9-290-166.7&#10;&#9;&#9;&#9;c0,0,300.3,145.5,288.2,166.4C837.4,318,572.3,114.3,560.9,134c-2.2,3.8,289.4,163.1,287.7,166.1&#10;&#9;&#9;&#9;c-2.4,4.2-282.5-176.6-288.9-165.5c0,0,286.3,164,285.8,165L560,135.8c-11.2,19.4,290.9,154,284.8,164.4&#10;&#9;&#9;&#9;C833,320.7,563.7,125.7,558,135.7c-6.9,12,282.9,163.3,282.9,163.3S573.5,115,560.2,138c-4.7,8.1,280.4,158.1,278.8,160.9&#10;&#9;&#9;&#9;c-3.2,5.5-270.9-173.8-278.8-160.1c0,0,286,145.1,277.4,160.1C832,308.5,563.9,126.2,557,138.1c-6.8,11.8,288.8,144.5,279.2,161.2&#10;&#9;&#9;&#9;c-0.6,1.1-272.5-170.6-278.7-160c0,0,281.7,155.7,278.7,160.9c0,0-269-175.3-278.2-159.4C557,142.4,841.5,286.5,833.7,300&#10;&#9;&#9;&#9;c-4.9,8.5-276.9-159.3-276.9-159.3c-10,17.3,276.8,159.8,276.8,159.8c-13.3,23.1-269.3-172-276.6-159.3&#10;&#9;&#9;&#9;c-3.8,6.7,281.8,144.2,273.8,158.1c-5.8,10.1-260-178.6-272.7-156.5c-1.3,2.3,273.3,155.8,272.5,157.3&#10;&#9;&#9;&#9;C818.4,321.1,557.8,143,557.8,143c-12,20.8,277.6,145.1,271,156.5c0,0-258-178.4-271.2-155.6l269.4,155.5&#10;&#9;&#9;&#9;C815.1,319.9,566.6,124,555.2,143.7c-1.5,2.6,278.4,139.3,269.1,155.4c-6.2,10.7-261.5-161-266.4-152.5&#10;&#9;&#9;&#9;C556,149.8,823,299.7,823,299.7c-5.1,8.9-260.2-165.1-267.1-153.1c-8.5,14.7,267.6,150,265.6,153.4&#10;&#9;&#9;&#9;c-0.9,1.6-260.2-163.1-266.1-153c-10.2,17.7,270.5,146.6,266.3,153.8c-3.3,5.8-263.6-154-264.8-151.9&#10;&#9;&#9;&#9;c-6.4,11.1,263.8,143.9,260.1,150.2c0,0-250.4-168.9-261.3-150.2c-6.9,11.9,263.6,150.7,263,151.8c-11,19-257.3-160.2-262.8-150.8&#10;&#9;&#9;&#9;c0,0,272.6,129.7,260.6,150.5c-11.1,19.2-256.5-159.4-261.5-150.6c0,0,266.6,139.2,260.2,150.2c-11.5,20-254.3-156.9-258.9-148.9&#10;&#9;&#9;&#9;c-2.5,4.4,258.7,144.8,256.8,148.2c-5.9,10.2-248.4-164-257.7-147.8c-11.6,20,266,128.4,255.1,147.3&#10;&#9;&#9;&#9;c-9.5,16.4-253.8-147.7-254.9-145.9c-6,10.4,263.6,131.3,254.6,147c-9.4,16.3-255.9-146.8-255.9-146.8&#10;&#9;&#9;&#9;c-2,3.4,254.4,146.9,254.4,146.9C807.9,301.5,565,137,555,154.4c-11.8,20.4,251.9,144.9,251.7,145.3&#10;&#9;&#9;&#9;c-3.8,6.6-250.2-147.6-252.1-144.3c-6.7,11.7,251.5,145.2,251.5,145.2c-11.6,20.1-245.5-149-249-142.9&#10;&#9;&#9;&#9;c-0.2,0.4,253.5,139.9,250.7,144.7c-2.5,4.3-245.7-158.4-253.4-145C547.4,169.3,812.6,296,808,303.9c-3,5.2-251.9-159.5-258.5-148&#10;&#9;&#9;&#9;c-12.1,21,259.6,146.1,258,148.9c-2.2,3.8-249.1-166.3-259.1-148.9C544,163.3,818.2,285.8,807,305.2&#10;&#9;&#9;&#9;c-6.5,11.3-258.4-148.8-258.4-148.8s265.5,136.3,258.1,149c-11.5,19.9-253.9-157.5-259-148.6c0,0,264.2,143.6,260.4,150.3&#10;&#9;&#9;&#9;c-12.7,22-253.7-161.8-260.8-149.5c0,0,261.3,150.7,261.2,150.8c-6.1,10.6-258-159.5-262.9-151c-1,1.8,261,150.7,261,150.7&#10;&#9;&#9;&#9;c-7.6,13.2-258.5-156.5-261.9-150.7C544.3,158.1,805,307.7,805,307.7s-250-172.1-262.2-151C541.5,159,814.5,295.4,806.7,309&#10;&#9;&#9;&#9;c-0.1,0.2-261-161.6-266.2-152.6c0,0,269.1,146.6,265.3,153.2c-12,20.9-256.2-170.3-266.3-152.9c-5.2,8.9,273.7,143.4,267.4,154.4&#10;&#9;&#9;&#9;c-3.3,5.8-261.2-163.7-267.1-153.4c-5.5,9.4,266.7,151.4,265.6,153.3C793.7,331,538.7,157.4,538.3,158c0,0,274.6,140.3,266.7,154&#10;&#9;&#9;&#9;c0,0-259-173.6-269.8-154.9c-9.5,16.5,277.8,146.1,271.6,156.8L533.8,157.1c-7.6,13.2,278.8,148.1,273.2,157.7&#10;&#9;&#9;&#9;c-6,10.3-271.1-160.9-273.2-157.3c-11.4,19.8,273.1,153.6,271.3,156.7c-8.8,15.2-259.7-177.4-271.9-156.2&#10;&#9;&#9;&#9;c0,0,281.7,139.9,271.9,157C795,332.4,540.3,145.2,532.7,158.3l272.9,157.5c-6.7,11.6-264-178.8-276.1-158&#10;&#9;&#9;&#9;c-8.4,14.6,285.1,146.4,277.2,160c-0.9,1.6-278.4-160.3-278.4-160.3C523.5,165.9,815,298.9,804.5,317&#10;&#9;&#9;&#9;c-5.5,9.6-274.9-161.5-276.6-158.6C516.7,177.8,819,297,806.2,319.1c0,0-275.3-163.8-277.6-159.7c-11,19,285.1,147.9,277.8,160.4&#10;&#9;&#9;&#9;c-7.5,13-276.8-163.4-278.5-160.4c0,0,277,158.4,276.3,159.5c-2.5,4.3-274.3-169.9-279.9-160.2c-9,15.5,284.7,156.7,281.4,162.5&#10;&#9;&#9;&#9;c-4.3,7.5-282-162.3-282-162.3c-9.2,15.9,281.5,162.5,281.5,162.5C802.1,327,527.4,149.6,522,158.9&#10;&#9;&#9;&#9;c-7.1,12.2,290.8,151.5,283.7,163.8c-7.9,13.7-274.1-180.3-284.3-162.8c-10.1,17.6,280.9,162.2,280.9,162.2&#10;&#9;&#9;&#9;C796,333,521.6,161.3,521.6,161.3c-6.3,10.9,287.1,153.3,281.7,162.6C797,334.7,525,153.1,520,161.9&#10;&#9;&#9;&#9;c-12.5,21.7,293.1,145.2,282.7,163.2c-9.1,15.7-275.6-176.9-283.6-162.9c-7.6,13.1,246.4,121,237.2,136.9&#10;&#9;&#9;&#9;C749.9,310,526.7,141.4,515.4,161c-1.9,3.2,240.4,136.7,239.5,138.3l-239.6-137l239.1,138c-5.3,9.1-231.5-149.7-239.1-136.7&#10;&#9;&#9;&#9;c-3,5.2,240.7,124.1,234.3,135.3c-2.4,4.1-232.4-143.1-236.4-136.1c-1.1,1.9,238,136.3,237.5,137.1&#10;&#9;&#9;&#9;c-4.4,7.7-233-144.9-237.9-136.5c-5.5,9.6,237.5,137.1,237.5,137.1c-5.5,9.6-232.2-145.9-237.5-136.7&#10;&#9;&#9;&#9;c-6.9,11.9,243.5,122.7,235.7,136.1C743.8,308.3,514,162.7,513,164.5c-2.2,3.7,236.5,129.1,233.3,134.7&#10;&#9;&#9;&#9;c-0.6,1-227.6-144.7-233.6-134.3c-6,10.4,238.7,122.4,232,133.9c-6,10.3-234.8-134.1-234.8-134.1&#10;&#9;&#9;&#9;c-10,17.3,242.9,121.7,234.9,135.6c-3.7,6.5-230.2-142.5-234.8-134.5c-3.9,6.7,243.6,114.9,232.4,134.2&#10;&#9;&#9;&#9;c-11,19-234.2-134.1-234.2-134.1c-4.5,7.9,240.4,116.4,230.7,133.2c-1.2,2.1-226.7-137.5-230.1-131.5&#10;&#9;&#9;&#9;c-1,1.7,240,113.8,229.3,132.4L504.8,166.4c-7.6,13.2,229.9,132.8,229.9,132.8C725,316,507.1,168.4,507.1,168.4s235,115,226,130.5&#10;&#9;&#9;&#9;c0,0-224.8-136.5-228.3-130.4c-3.5,6.1,227,129.8,226.5,130.8c-9.2,16-218.3-150.5-229.5-131.2c-5.9,10.2,231.9,127.4,229.1,132.3&#10;&#9;&#9;&#9;c-7.1,12.2-226.4-135-228.8-130.9c-0.8,1.4,231.6,119.2,225.3,130.1c-10.8,18.7-220.6-136.1-224.7-129&#10;&#9;&#9;&#9;c-8.1,14,225.5,130.2,225.5,130.2c-6.5,11.3-224.2-133.5-226.2-130C491.5,189,726.2,300.1,726.2,300.1&#10;&#9;&#9;&#9;c-9.5,16.5-223.8-132.1-225.6-129c-2.9,5.1,232.3,113.5,223.4,129c0,0-219.6-135.8-224-128.1c-2.2,3.8,224,119.2,219.6,126.8&#10;&#9;&#9;&#9;c-7.1,12.2-210.3-144-220.3-126.7C497.4,175.2,729.4,281,719,299c0,0-210-144.8-220.4-126.7c0,0,228,113.3,220.1,127.1&#10;&#9;&#9;&#9;c-6.3,10.9-212.5-144.2-222.1-127.4c0,0,228.9,115.3,221.6,127.9c0,0-214.8-136.1-220.6-125.9c-1.6,2.8,227.9,111,219,126.4&#10;&#9;&#9;&#9;c-2.5,4.4-211.9-142.8-221-127.1c-6.5,11.3,225.2,114.4,218.5,126.1c-5.8,10.1-212-131.7-216.6-123.7c0,0,216.5,119.3,214,123.6&#10;&#9;&#9;&#9;c-8.8,15.2-212-133-216.9-124.6c-9.8,17,216.4,124.4,216.2,124.8c-6.5,11.2-209.3-137-216.5-124.4&#10;&#9;&#9;&#9;c-5.5,9.5,222.8,112.1,215.7,124.5c0,0-208.1-138.9-216.4-124.4c-6.7,11.6,224.7,113.8,217.8,125.7c-5.8,10.1-216-123.4-216-123.4&#10;&#9;&#9;&#9;C491.3,184,719.2,283,708.9,300.8c-5.4,9.4-215.7-126.1-216.6-124.6c0,0,215.3,123.4,214.9,124.1&#10;&#9;&#9;&#9;c-6.4,11.1-211.5-125.8-213.7-121.9c-7.7,13.4,218.9,109.9,211.8,122.3c0,0-206.5-134.2-213.1-122.7&#10;&#9;&#9;&#9;c-8.1,14.1,215.3,124.3,215.3,124.3C699,317,492.7,179.7,492.7,179.7S716.1,286.1,706.3,303c-6.3,10.9-212.9-123.9-213.5-122.8&#10;&#9;&#9;&#9;c-4.2,7.2,216,115.3,212,122.4c-0.3,0.6-212.9-124.7-214-122.7c0,0,215.5,119.2,213.3,123.1c0,0-210.5-128.2-213.9-122.3&#10;&#9;&#9;&#9;c-3.1,5.3,222.3,112.5,215.5,124.4c0,0-211.1-133.4-216.8-123.7C480.6,195.6,713,290.2,704,305.7l-214.3-123&#10;&#9;&#9;&#9;c-1.5,2.6,222.7,110.4,214.8,124c0,0-212.2-132-216.7-124c-4.9,8.4,215.4,124.4,215.4,124.4c-3.8,6.7-206.8-141-216.3-124.5&#10;&#9;&#9;&#9;c-4.1,7.1,224.2,110.7,216.1,124.8c-8,13.8-213.3-125.3-214.7-122.9c-9.9,17.1,214.6,123.9,214.6,123.9S489,177.6,485.2,184.2&#10;&#9;&#9;&#9;c-8.3,14.4,215.1,124.2,215.1,124.2c-6.3,10.8-211.5-130.5-215.5-123.6C474.6,202.4,701,309.7,701,309.7&#10;&#9;&#9;&#9;c-0.5,0.8-206-139.1-214.9-123.7c-5.5,9.6,223.9,106.5,214.1,123.6c-4.2,7.3-207.3-138.9-216.1-123.7&#10;&#9;&#9;&#9;C474.5,202.5,704,297.6,697.4,309C697,309.7,495,170.3,484.9,187.7c-5.1,8.9,223.1,109.7,214.8,124&#10;&#9;&#9;&#9;c-4,6.8-214.6-123.2-214.6-123.2L697,310.9c-5.5,9.6-208.6-129.4-212.8-122.2c-10.3,17.8,211.6,122.1,211.6,122.1&#10;&#9;&#9;&#9;c-4,7-209.6-124.3-211.5-121c0,0,217.6,115.6,213.3,123.1c-8.8,15.2-215.5-124.4-215.9-123.7c-0.7,1.2,222.9,110.7,215.1,124.2&#10;&#9;&#9;&#9;C693,320,488.3,184.3,484,191.9c-4.1,7.1,210.9,121.8,210.9,121.8L482.5,192.5c-8.7,15,212.6,122.7,212.6,122.7&#10;&#9;&#9;&#9;c-9.3,16.2-205.1-140.5-215.3-122.8c0,0,213.8,123.1,213.7,123.4c-9.2,16-212.6-121.6-212.6-121.6&#10;&#9;&#9;&#9;c-2.9,5.1,214.7,117.4,211.8,122.3c-1.1,2-207.5-133.2-213.6-122.6c0,0,216.1,116.2,212.3,122.6L478.9,194.7&#10;&#9;&#9;&#9;C472.2,206.2,699,302,690.4,316.8c-6.4,11.1-209.7-120.4-209.7-120.4c-4,7,218.1,107.8,210.3,121.4c-4.5,7.8-208-124-210-120.4&#10;&#9;&#9;&#9;c-0.1,0.2,219.7,105.3,210.3,121.4c-5.5,9.6-211.9-121.6-211.9-121.6c-7.6,13.2,216.8,107.9,209.3,120.8&#10;&#9;&#9;&#9;c-5.6,9.7-207.6-122.8-209.1-120.1c-3.6,6.2,215.7,111.4,210,121.2c0,0-210.5-123.1-211.8-120.8&#10;&#9;&#9;&#9;c-9.3,16.1,214.1,111.4,208.8,120.5c-1.4,2.4-203.2-124.8-206.6-118.9c0,0,210.7,116.8,208.6,120.4c0,0-209.9-121-210-120.8&#10;&#9;&#9;&#9;c-0.8,1.4,209.6,120.5,209.3,120.9c-9.1,15.7-200.2-138.2-210.4-120.6c-2.9,5,211.9,115.3,208.8,120.6&#10;&#9;&#9;&#9;c-2.7,4.7-209.2-119.4-209.2-119.4S686,318.9,684.8,321c-1.9,3.4-205.7-122.7-207.5-119.4c-5.5,9.6,208.7,120.3,208.6,120.4&#10;&#9;&#9;&#9;c-4.1,7-201.7-133.9-209.7-120c-5.9,10.3,211.3,116.9,209.1,120.7c-0.8,1.4-198.2-133.9-207-118.6l206.2,119&#10;&#9;&#9;&#9;c0,0-202.9-130.6-209.1-119.9c0,0,212.5,111.5,207.6,119.9c-5.6,9.8-206-122.4-207.7-119.5l205.6,118.7c0,0-205.2-118.8-206-117.5&#10;&#9;&#9;&#9;c0,0,216.4,104.5,207.5,119.8L474.3,204.8c-0.7,1.3,213.8,103.3,205.1,118.4c0,0-198.9-129-205.6-117.5&#10;&#9;&#9;&#9;c-4.7,8.2,213.9,101.7,204.5,118.1c-8.6,14.9-195-134.2-205-116.9c-9.7,16.9,208.5,113.7,205.7,118.7&#10;&#9;&#9;&#9;c-5.5,9.5-200.1-126.1-204.9-117.8c-5.7,9.9,202.7,117,202.7,117S475,205.2,473.4,208c-2.3,4,208.5,112.8,205.2,118.5&#10;&#9;&#9;&#9;c-9,15.7-197.9-129.8-205.1-117.3c0,0,212.7,100.7,203.1,117.3c-8.2,14.2-199.8-121.5-202.6-116.6&#10;&#9;&#9;&#9;c-5.2,8.9,209.9,99.7,200.6,115.8c-4.5,7.7-201.8-115.2-201.8-115.2c-6,10.4,206.7,109.2,202.3,116.8&#10;&#9;&#9;&#9;c-3.1,5.4-199.4-118.1-201-115.2c-2.3,4,199.3,115.1,199.3,115.1S480.1,198.1,472.2,211.9c-5.3,9.2,203.7,112.4,201.4,116.3&#10;&#9;&#9;&#9;c0,0-190.5-128-198.8-113.7C470.8,221.6,675.1,323,672,328.3c-1.3,2.2-199.4-114.8-199.4-114.8c-4.1,7,199.4,111.2,197.7,114.2&#10;&#9;&#9;&#9;c-9.3,16.2-194.1-122.2-198.7-114.4c-6.2,10.8,205.6,104.7,199.6,115.2c-1.7,3-199.4-114.4-199.4-114.4&#10;&#9;&#9;&#9;c-2.6,4.5,202.8,105.8,197.9,114.3c-5.9,10.1-195-111.8-195-111.8c-6.7,11.6,201.2,99.5,194,112&#10;&#9;&#9;&#9;c-6.1,10.6-187.3-124.6-194.8-111.5c-1.7,2.9,202.2,97.2,193.8,111.9c-3.3,5.8-185.2-124.9-193.4-110.6&#10;&#9;&#9;&#9;c0,0,196.9,103.8,192.6,111.2c-0.2,0.4-189.6-117-193.4-110.3c-6.2,10.8,197.6,100.6,191.8,110.7c-3,5.2-183.1-123.8-191.1-109.9&#10;&#9;&#9;&#9;c0,0,192.1,106.3,190.1,109.7c0,0-182.7-124.8-191.6-109.5c-7.9,13.7,197.8,95.7,189.8,109.6c-0.6,1-188.6-108.3-188.6-108.3&#10;&#9;&#9;&#9;c-3,5.2,193.7,97.5,187.5,108.3c-8.8,15.3-188-112.5-190-109c-2.8,4.9,195.7,99.6,189.9,109.7c-2.7,4.6-183.5-119.6-189.9-108.5&#10;&#9;&#9;&#9;c-4.1,7.1,193.6,101.9,189.3,109.3c-6.9,11.9-181.7-116.4-187.2-106.9c-7.1,12.3,190.7,96.5,184.8,106.7&#10;&#9;&#9;&#9;c-0.9,1.5-187.2-108.1-187.8-107.1c-6,10.3,196,95.3,188.3,108.7c-7.8,13.5-185-109.5-186.7-106.5c-3,5.1,185.3,105.1,184.5,106.5&#10;&#9;&#9;&#9;c0,0-183.5-110.1-185.6-106.6c-2.6,4.6,187.9,102.7,185.4,107c-8.1,14.1-176.7-118.8-184.6-105.1c-2.5,4.4,186.7,96.1,181.6,104.9&#10;&#9;&#9;&#9;c-4.1,7-180.4-105.7-181.2-104.2C471.4,230,654,330.5,652.6,333c-0.3,0.6-172.2-117.6-180.3-103.6c-0.3,0.5,182.7,99.7,180.2,104&#10;&#9;&#9;&#9;c-4.3,7.4-171.5-117.5-180.1-102.5C471.7,232.2,649,332.9,649,332.9s-174.2-109-178.2-102.1c-0.3,0.6,182.3,90.1,175.8,101.5&#10;&#9;&#9;&#9;c-3.4,5.8-168.4-109.7-174.4-99.4c-0.4,0.8,173.1,98.5,172.5,99.6c-6.4,11.2-172.9-99.5-173-99.3c-2.3,3.9,174.5,97.9,173.3,100&#10;&#9;&#9;&#9;c-1.2,2-169.5-103.8-172.5-98.8c-7,12.2,178.5,87.9,171.9,99.3c-7.6,13.1-165.4-107.1-170.8-97.8c-3.2,5.6,177.7,86.2,170.6,98.5&#10;&#9;&#9;&#9;c-0.1,0.1-171-98.1-171-98.1c-2.4,4.1,171.4,92.5,168.6,97.3c-3.5,6-160.3-107.7-167.4-95.3c-6.9,11.9,164.6,95,164.6,95&#10;&#9;&#9;&#9;c-1.6,2.8-159.7-104.2-165.4-94.4c0,0,165.5,91.9,163.9,94.7c0,0-159.2-106.3-165.9-94.7c-2,3.4,106.4,60.3,105.9,61.1&#10;&#9;&#9;&#9;c-4.4,7.7-100.4-67.4-104.7-59.8c-2.3,4,106.4,50.7,101.8,58.7c-4,6.9-97.5-60.3-99.7-56.6c-2.7,4.7,101.4,54.9,99.8,57.6&#10;&#9;&#9;&#9;c-4,7-95.6-64.9-100.3-56.8c-4.7,8.2,98.2,53.8,97,56c0,0-92.5-61.4-96.3-54.7c0,0,95.6,52.7,94.5,54.6&#10;&#9;&#9;&#9;c-0.3,0.6-95.1-56.3-96-54.6c-2.7,4.7,98.1,51.7,96,55.4c-4.4,7.7-92.6-57.9-94.8-54c-1.3,2.2,94.1,52.4,93.3,53.9&#10;&#9;&#9;&#9;c0,0-91.9-54.3-92.9-52.5c-2.4,4.2,91.4,49.9,90.2,52.1c-2.2,3.9-89.8-50.8-89.8-50.8c-0.6,1,90,52,90,52&#10;&#9;&#9;&#9;c-0.9,1.5-85.7-54.1-88.3-49.7c-1,1.7,84.8,48.4,84.6,48.8c0,0-81.3-54.5-85-48.1c0,0,88.7,42.7,85,49.1&#10;&#9;&#9;&#9;c-0.3,0.5-86.2-49.6-86.4-49.3c-1.2,2,85.8,48.7,85.4,49.3c-4.1,7-84-47.6-84-47.6c-2.3,3.9,83,43.5,81.1,46.8l-79.9-45&#10;&#9;&#9;&#9;c-0.5,0.8,78.5,40.2,76.2,44c-3.1,5.4-74.6-42.4-74.8-42.1c-3.1,5.3,74.1,41.8,73.6,42.5c-2.6,4.6-73.9-43.2-74.4-42.3&#10;&#9;&#9;&#9;c-0.9,1.6,74.5,38.2,72.4,41.8c0,0.1-71.6-44.3-73.1-41.7c0,0,75.7,40.8,74.4,43c-0.8,1.5-68.1-45.9-71.4-40.1&#10;&#9;&#9;&#9;c0,0,73.4,35.5,70.4,40.6c0,0-67.6-45-70.7-39.7l65.7,38c-2,3.5-66.3-37.6-66.3-37.6c-1.6,2.8,66.5,38.4,66.5,38.4&#10;&#9;&#9;&#9;c-1.5,2.6-64.1-38.4-65-37c-1.5,2.6,64.1,33.4,62.5,36.1c0,0-60.8-37-62.3-34.5c-2.5,4.4,63.9,34.7,62.9,36.3&#10;&#9;&#9;&#9;c-2.3,4-60.9-33.7-60.9-33.7c-1.8,3.1,56.1,30.9,55.4,32c-1.4,2.4-52.7-34.9-55.1-30.6c-1,1.7,53,28.6,52.1,30.1&#10;&#9;&#9;&#9;c-0.9,1.6-50.8-28.2-50.9-28.1c0,0,51.4,27.6,50.5,29.2c-1.8,3.2-47.9-27.6-48.1-27.3c-1,1.8,48,24.1,46.4,26.8&#10;&#9;&#9;&#9;c-1.8,3.1-43.9-26.6-45-24.8c-0.6,1,44.5,21.4,42.6,24.6c0,0-37-23-38.3-20.8c-0.6,1.1,36.4,17.9,35.1,20.2&#10;&#9;&#9;&#9;c-1.5,2.6-32.9-18.8-33.4-18c-0.4,0.6,29.8,14.8,28.8,16.6c0,0-28.2-16.7-28.6-16.1c-1.1,1.9,24.1,13.8,24,13.9&#10;&#9;&#9;&#9;c-0.5,0.9-21.5-11.9-21.5-11.9c-0.7,1.3,20.1,11.6,20.1,11.6c-0.4,0.8-14.2-7.5-14.2-7.5c-0.1,0.1,9,5.2,9,5.2" style="fill: none; stroke: rgb(0, 178, 204); stroke-width: 0.9; stroke-linecap: round; stroke-linejoin: round;"/>
		<path class="st3" d="M884.2,113.8l7.7,4.4c-0.1,0.1-11.6-6.3-11.6-6.3c-0.2,0.3,12.4,6.8,12.2,7.1c0,0-16-9.2-16.4-8.4&#10;&#9;&#9;&#9;c-0.2,0.3,18.2,10,18,10.4c-0.3,0.5-21.5-10.9-21.5-10.9c-0.7,1.2,27.5,14.9,27,15.6l-28-15.8c-0.8,1.4,27.2,14.7,26.8,15.4&#10;&#9;&#9;&#9;c-1.1,2-27-14.9-27.3-14.4c-1.3,2.3,27.9,16.1,27.9,16.1c-0.6,1.1-27.7-16.2-28.1-15.5c0,0,31.8,17.3,31.3,18.1&#10;&#9;&#9;&#9;c-0.6,1-32-21.2-33.6-18.4c-1.3,2.3,32.2,18.6,32.2,18.6c-0.3,0.5-31.5-20.7-32.9-18.2c0,0,35.2,18.2,34.3,19.8&#10;&#9;&#9;&#9;c-1.1,1.9-35.4-21.3-36.4-19.6c-1.3,2.3,38.7,18.9,37.2,21.5c-1.8,3.2-37.9-20.9-37.9-20.9s37.6,18.7,36.3,20.9&#10;&#9;&#9;&#9;c-0.6,1-39.4-24.6-40.7-22.4c-1,1.8,42.4,24.1,42.2,24.4c-0.7,1.2-41.9-23.2-41.9-23.2c-1.8,3.2,44.2,22.6,42.9,24.8&#10;&#9;&#9;&#9;c-0.7,1.2-42.7-24.3-42.7-24.3c-1.4,2.5,42.7,21.1,41.2,23.8c0,0-40.9-23.4-41.3-22.6c-0.7,1.2,41.2,23.8,41.2,23.8&#10;&#9;&#9;&#9;c-1,1.7-43.6-25.4-43.9-24.9c0,0,45.9,24.3,45,26c-1.4,2.4-43.9-24.3-43.9-24.3c-1.7,3,44.3,24.3,43.8,25.3&#10;&#9;&#9;&#9;c-0.4,0.8-43.9-27.9-45.2-25.6c-0.9,1.6,47.5,26.2,47,27.1c-0.7,1.2-48.1-28.4-48.9-27c0,0,48.1,24.9,46.9,27.1&#10;&#9;&#9;&#9;c-0.4,0.7-48.3-28.5-49.1-27.2c-0.9,1.6,51.9,24.7,49.6,28.7c-1.1,1.9-48.2-31.6-50.3-27.9c0,0,51.7,29.1,51.4,29.7&#10;&#9;&#9;&#9;c-0.5,0.9-52.6-29.2-52.6-29.1c-1.3,2.2,53,27.3,51.6,29.8c-2.5,4.4-51.6-30.6-52.4-29.1c-1.7,2.9,52.7,29,52.1,30.1&#10;&#9;&#9;&#9;c-1.6,2.8-51.3-28.8-51.3-28.8c-2.3,3.9,53.4,28,52.2,30.1c-0.4,0.7-50.5-33.1-52.5-29.7c-2.4,4.2,53.2,28.5,52.2,30.1&#10;&#9;&#9;&#9;c-0.2,0.4-51.5-30-51.8-29.5c-0.8,1.4,53.1,30.2,52.9,30.6l-56-31.7c-2.2,3.8,55.6,26.3,53,30.6c-0.2,0.4-51.4-30.5-51.9-29.6&#10;&#9;&#9;&#9;c-0.9,1.5,56.3,29.7,55.1,31.8c-0.2,0.4-53-34.2-55-30.6c0,0,55.3,28.9,54,31.2" style="fill: none; stroke: rgb(0, 178, 204); stroke-width: 0.9; stroke-linecap: round; stroke-linejoin: round;"/>
	</g>
</g></g><path d="M 629.1912841796875 378.8900146484375 L 629.1712646484375 378.9800109863281 C 629.1712646484375 378.99334716796875 629.3546142578125 379.61334228515625 629.7212524414062 380.8399963378906 C 629.9613037109375 381.7933349609375 630.081298828125 382.52667236328125 630.081298828125 383.0400085449219 C 630.081298828125 383.5533447265625 630.0213012695312 384.0566711425781 629.9013061523438 384.54998779296875 C 629.78125 385.0433349609375 629.6046142578125 385.51666259765625 629.3712768554688 385.9700012207031 C 629.137939453125 386.42333984375 628.8212890625 386.7966613769531 628.4212646484375 387.0899963378906 C 628.0213012695312 387.3833312988281 627.6345825195312 387.5299987792969 627.2612915039062 387.5299987792969 C 626.887939453125 387.5299987792969 626.6246337890625 387.5199890136719 626.4712524414062 387.5 C 626.0112915039062 387.4533386230469 625.6879272460938 387.2633361816406 625.5012817382812 386.92999267578125 C 625.5012817382812 386.7366638183594 625.5845947265625 386.6400146484375 625.7512817382812 386.6400146484375 C 625.91796875 386.6400146484375 626.1445922851562 386.70001220703125 626.4312744140625 386.82000732421875 C 626.7179565429688 386.94000244140625 626.9879760742188 387 627.2412719726562 387 C 627.5012817382812 387 627.7779541015625 386.8500061035156 628.0712890625 386.54998779296875 C 628.3646240234375 386.25665283203125 628.5879516601562 385.8900146484375 628.7412719726562 385.45001220703125 C 629.0546264648438 384.5633239746094 629.2113037109375 383.7300109863281 629.2113037109375 382.95001220703125 C 629.2113037109375 382.1766662597656 629.0946044921875 381.38665771484375 628.8612670898438 380.5799865722656 C 628.6279296875 379.7733459472656 628.34130859375 379.03668212890625 628.0012817382812 378.3699951171875 C 627.6612548828125 377.7099914550781 627.3245849609375 377.0466613769531 626.9912719726562 376.3800048828125 C 626.1846313476562 374.8066711425781 625.78125 373.3166809082031 625.78125 371.9100036621094 C 625.78125 370.74334716796875 626.1312866210938 369.8133239746094 626.831298828125 369.1199951171875 C 627.2179565429688 368.7533264160156 627.66796875 368.57000732421875 628.1812744140625 368.57000732421875 C 628.3479614257812 368.57000732421875 628.5579223632812 368.6333312988281 628.811279296875 368.760009765625 C 629.0712890625 368.88665771484375 629.2279663085938 369.0199890136719 629.28125 369.1600036621094 L 629.1412963867188 369.42999267578125 C 628.78125 369.42999267578125 628.5213012695312 369.3500061035156 628.3612670898438 369.19000244140625 C 627.974609375 369.19000244140625 627.6445922851562 369.3333435058594 627.3712768554688 369.6199951171875 C 626.8579711914062 370.1533203125 626.6012573242188 370.8500061035156 626.6012573242188 371.7099914550781 C 626.6012573242188 372.34332275390625 626.6513061523438 372.8666687011719 626.7512817382812 373.2799987792969 C 626.8512573242188 373.70001220703125 626.9312744140625 374.0199890136719 626.9912719726562 374.239990234375 C 627.0446166992188 374.4599914550781 627.1412963867188 374.7366638183594 627.28125 375.07000732421875 C 627.4212646484375 375.4033203125 627.5245971679688 375.6533203125 627.59130859375 375.82000732421875 C 627.657958984375 375.9866638183594 627.7879638671875 376.25665283203125 627.9812622070312 376.6300048828125 C 628.16796875 377.0033264160156 628.291259765625 377.2466735839844 628.3512573242188 377.3599853515625 C 628.4112548828125 377.4666748046875 628.5546264648438 377.7300109863281 628.78125 378.1499938964844 C 629.0145874023438 378.5633239746094 629.1513061523438 378.80999755859375 629.1912841796875 378.8900146484375 ZM 633.427978515625 386.45001220703125 L 635.68798828125 386.5199890136719 L 635.7679443359375 386.5199890136719 C 635.8479614257812 386.5199890136719 635.927978515625 386.5633239746094 636.0079956054688 386.6499938964844 C 636.0879516601562 386.74334716796875 636.1279907226562 386.836669921875 636.1279907226562 386.92999267578125 C 636.1279907226562 387.1099853515625 635.9979858398438 387.2099914550781 635.7379760742188 387.2300109863281 C 635.3246459960938 387.2166748046875 634.6613159179688 387.2099914550781 633.7479858398438 387.2099914550781 L 633.7979736328125 387.2300109863281 L 632.907958984375 387.32000732421875 C 632.6812744140625 387.32000732421875 632.5479736328125 387.13665771484375 632.5079956054688 386.7699890136719 C 632.5346069335938 386.6099853515625 632.5479736328125 386.34332275390625 632.5479736328125 385.9700012207031 L 632.68798828125 373.1700134277344 L 632.8079833984375 371.5899963378906 C 632.8079833984375 371.48333740234375 632.8679809570312 371.42999267578125 632.9879760742188 371.42999267578125 L 633.387939453125 371.5199890136719 C 633.387939453125 371.5199890136719 633.3779907226562 372.1533203125 633.3579711914062 373.4200134277344 L 633.387939453125 378.6400146484375 C 633.34130859375 379.9533386230469 633.3179931640625 380.6266784667969 633.3179931640625 380.6600036621094 L 633.3579711914062 382.70001220703125 L 633.2879638671875 382.8999938964844 L 633.3179931640625 382.8699951171875 L 633.2879638671875 383.05999755859375 C 633.2879638671875 383.1933288574219 633.311279296875 383.3066711425781 633.3579711914062 383.3999938964844 L 633.2879638671875 385.70001220703125 L 633.2879638671875 385.8500061035156 C 633.2879638671875 386.10333251953125 633.2979736328125 386.26666259765625 633.3179931640625 386.3399963378906 C 633.331298828125 386.413330078125 633.3679809570312 386.45001220703125 633.427978515625 386.45001220703125 ZM 642.0228271484375 386.80999755859375 L 641.2228393554688 386.7300109863281 C 641.09619140625 386.7300109863281 640.9495239257812 386.77667236328125 640.7828369140625 386.8699951171875 C 640.6094970703125 386.9566650390625 640.40283203125 387 640.162841796875 387 C 639.9228515625 387 639.7728271484375 386.92333984375 639.7128295898438 386.7699890136719 L 639.3128662109375 386.7900085449219 C 638.9728393554688 386.7900085449219 638.7561645507812 386.7066650390625 638.662841796875 386.5400085449219 C 638.662841796875 386.44000244140625 638.7061767578125 386.3566589355469 638.7928466796875 386.2900085449219 C 638.8861694335938 386.22332763671875 638.9461669921875 386.1700134277344 638.9728393554688 386.1300048828125 L 639.662841796875 386.1300048828125 L 639.7628784179688 386.0400085449219 L 639.8428344726562 385.5400085449219 C 639.8428344726562 385.5400085449219 639.7828369140625 383.7900085449219 639.662841796875 380.2900085449219 L 639.7828369140625 374.67999267578125 C 639.7828369140625 373.59332275390625 639.7428588867188 372.6700134277344 639.662841796875 371.9100036621094 C 639.509521484375 371.86334228515625 639.2728271484375 371.8399963378906 638.952880859375 371.8399963378906 L 638.3728637695312 371.8800048828125 C 638.0728759765625 371.8800048828125 637.9228515625 371.74334716796875 637.9228515625 371.4700012207031 C 637.9228515625 371.4033203125 637.9928588867188 371.336669921875 638.1328735351562 371.2699890136719 C 638.279541015625 371.2099914550781 638.3995361328125 371.17999267578125 638.4928588867188 371.17999267578125 C 640.7195434570312 371.17999267578125 641.8328857421875 371.42333984375 641.8328857421875 371.9100036621094 C 641.8328857421875 371.9566650390625 641.8128662109375 372.01666259765625 641.7728271484375 372.0899963378906 L 641.2228393554688 372.1400146484375 C 641.09619140625 372.0466613769531 640.8662109375 372 640.5328369140625 372 L 640.412841796875 372.07000732421875 C 640.4595336914062 372.2099914550781 640.4828491210938 372.63665771484375 640.4828491210938 373.3500061035156 L 640.412841796875 379.04998779296875 L 640.5828857421875 384.32000732421875 L 640.5528564453125 385.04998779296875 C 640.5528564453125 385.42999267578125 640.576171875 385.6533203125 640.6228637695312 385.7200012207031 L 640.6028442382812 385.7799987792969 C 640.6028442382812 385.94000244140625 640.779541015625 386.0199890136719 641.1328735351562 386.0199890136719 L 641.8328857421875 385.989990234375 C 642.3128662109375 385.989990234375 642.5528564453125 386.10333251953125 642.5528564453125 386.3299865722656 C 642.5528564453125 386.4700012207031 642.49951171875 386.586669921875 642.3928833007812 386.67999267578125 C 642.2928466796875 386.76666259765625 642.1694946289062 386.80999755859375 642.0228271484375 386.80999755859375 ZM 645.5371704101562 377.30999755859375 L 645.4472045898438 382.1499938964844 C 645.4472045898438 383.5033264160156 645.5738525390625 384.4700012207031 645.8272094726562 385.04998779296875 C 646.127197265625 385.74334716796875 646.5072021484375 386.19000244140625 646.9671630859375 386.3900146484375 C 647.260498046875 386.5233459472656 647.5638427734375 386.5899963378906 647.877197265625 386.5899963378906 C 648.183837890625 386.5899963378906 648.4205322265625 386.5199890136719 648.5872192382812 386.3800048828125 C 648.8272094726562 386.3800048828125 648.9472045898438 386.4666748046875 648.9472045898438 386.6400146484375 C 648.9472045898438 386.760009765625 648.8405151367188 386.89666748046875 648.627197265625 387.04998779296875 C 648.4071655273438 387.2033386230469 648.2105102539062 387.3166809082031 648.0371704101562 387.3900146484375 L 647.2371826171875 387.3900146484375 C 647.13720703125 387.3299865722656 646.9505004882812 387.260009765625 646.6771850585938 387.17999267578125 C 646.4038696289062 387.09332275390625 646.1505126953125 386.9633483886719 645.9171752929688 386.7900085449219 C 645.683837890625 386.6233215332031 645.4671630859375 386.3466796875 645.2672119140625 385.9599914550781 C 645.060546875 385.5733337402344 644.9171752929688 385.1233215332031 644.8372192382812 384.6099853515625 C 644.6972045898438 383.7633361816406 644.627197265625 382.8166809082031 644.627197265625 381.7699890136719 L 644.627197265625 379.0299987792969 C 644.627197265625 376.89666748046875 644.703857421875 375.4366760253906 644.857177734375 374.6499938964844 C 645.1705322265625 373.04998779296875 645.59716796875 372.03668212890625 646.13720703125 371.6099853515625 C 646.2772216796875 371.5033264160156 646.4938354492188 371.3933410644531 646.7871704101562 371.2799987792969 C 647.0805053710938 371.1666564941406 647.280517578125 371.0799865722656 647.38720703125 371.0199890136719 L 648.34716796875 371.0199890136719 C 648.3671875 371.0199890136719 648.3905029296875 371.0233459472656 648.4171752929688 371.0299987792969 C 648.44384765625 371.03668212890625 648.4638671875 371.0400085449219 648.4771728515625 371.0400085449219 C 648.4905395507812 371.0466613769531 648.510498046875 371.0533447265625 648.5371704101562 371.05999755859375 C 648.5704956054688 371.0666809082031 648.5905151367188 371.0733337402344 648.59716796875 371.0799865722656 C 648.6105346679688 371.086669921875 648.6305541992188 371.09332275390625 648.6571655273438 371.1000061035156 C 648.6771850585938 371.11334228515625 648.6905517578125 371.1233215332031 648.6972045898438 371.1300048828125 C 648.7705078125 371.2033386230469 648.8071899414062 371.28668212890625 648.8071899414062 371.3800048828125 L 648.4871826171875 371.7300109863281 L 647.4771728515625 371.7300109863281 C 647.1505126953125 371.7300109863281 646.8671875 371.8833312988281 646.627197265625 372.19000244140625 C 646.38720703125 372.5033264160156 646.2005004882812 372.8699951171875 646.0671997070312 373.2900085449219 C 645.9405517578125 373.7099914550781 645.8372192382812 374.1966552734375 645.7572021484375 374.75 C 645.6438598632812 375.5899963378906 645.5872192382812 376.3999938964844 645.5872192382812 377.17999267578125 L 645.5371704101562 377.30999755859375 ZM 653.9515380859375 376.1000061035156 L 653.9015502929688 377.6400146484375 C 653.9015502929688 378.3666687011719 654.1748657226562 379.6966552734375 654.7215576171875 381.6300048828125 C 655.38818359375 383.9566650390625 655.9515380859375 385.4333190917969 656.4114990234375 386.05999755859375 C 656.724853515625 386.47332763671875 656.8815307617188 386.7699890136719 656.8815307617188 386.95001220703125 C 656.8815307617188 387.2699890136719 656.744873046875 387.42999267578125 656.4715576171875 387.42999267578125 C 656.091552734375 387.42999267578125 655.63818359375 386.7133483886719 655.1115112304688 385.2799987792969 C 654.5848388671875 383.8399963378906 654.1415405273438 382.35333251953125 653.7815551757812 380.82000732421875 C 653.4215087890625 379.28668212890625 653.2315063476562 378.239990234375 653.2115478515625 377.67999267578125 L 653.1515502929688 377.5899963378906 C 653.0982055664062 377.7099914550781 652.9715576171875 377.9700012207031 652.7715454101562 378.3699951171875 C 652.571533203125 378.7699890136719 652.4315185546875 379.0566711425781 652.3515014648438 379.2300109863281 C 652.1182250976562 379.7833251953125 652.0015258789062 380.3500061035156 652.0015258789062 380.92999267578125 L 651.8915405273438 382.6499938964844 L 651.8915405273438 385.7200012207031 L 652.051513671875 387.0899963378906 C 652.051513671875 387.1766662597656 652.0115356445312 387.2466735839844 651.9315185546875 387.29998779296875 C 651.8448486328125 387.3599853515625 651.7282104492188 387.3900146484375 651.58154296875 387.3900146484375 C 651.4348754882812 387.3900146484375 651.3248901367188 387.3566589355469 651.2515258789062 387.2900085449219 C 651.17822265625 387.22332763671875 651.1415405273438 387.086669921875 651.1415405273438 386.8800048828125 L 651.1415405273438 382.3699951171875 L 651.3615112304688 379.3500061035156 L 651.591552734375 374.7099914550781 L 651.591552734375 371.3800048828125 C 651.67822265625 371.20001220703125 651.8048706054688 371.1099853515625 651.9715576171875 371.1099853515625 C 652.1448364257812 371.1099853515625 652.2781982421875 371.15667724609375 652.3715209960938 371.25 C 652.46484375 371.34332275390625 652.5115356445312 371.45001220703125 652.5115356445312 371.57000732421875 C 652.3715209960938 371.8233337402344 652.301513671875 372.2166748046875 652.301513671875 372.75 C 652.301513671875 373.2833251953125 652.2848510742188 374.1166687011719 652.2515258789062 375.25 C 652.2182006835938 376.3833312988281 652.2015380859375 377.2300109863281 652.2015380859375 377.7900085449219 C 652.3615112304688 377.7300109863281 652.98486328125 376.6266784667969 654.071533203125 374.4800109863281 C 655.1648559570312 372.3333435058594 655.7648315429688 371.260009765625 655.8715209960938 371.260009765625 C 656.2781982421875 371.260009765625 656.4915161132812 371.3933410644531 656.5115356445312 371.6600036621094 C 655.5115356445312 373.1266784667969 654.658203125 374.6066589355469 653.9515380859375 376.1000061035156 ZM 661.8848876953125 380.6099853515625 L 662.0048828125 386.20001220703125 C 662.0048828125 386.82666015625 661.8648681640625 387.1400146484375 661.5848999023438 387.1400146484375 C 661.4248657226562 387.1400146484375 661.3015747070312 387.0299987792969 661.2149047851562 386.80999755859375 C 661.1282348632812 386.5833435058594 661.0848999023438 386.3733215332031 661.0848999023438 386.17999267578125 L 661.2848510742188 382.239990234375 C 661.2848510742188 381.3999938964844 661.2282104492188 380.1266784667969 661.1148681640625 378.4200134277344 C 661.0015258789062 376.71331787109375 660.9448852539062 375.42999267578125 660.9448852539062 374.57000732421875 L 660.9649047851562 372.32000732421875 C 660.9649047851562 370.6666564941406 660.8281860351562 369.8399963378906 660.5548706054688 369.8399963378906 L 659.1948852539062 369.9800109863281 C 659.08154296875 369.9800109863281 658.9682006835938 369.9433288574219 658.8548583984375 369.8699951171875 C 658.7482299804688 369.7966613769531 658.6948852539062 369.6966552734375 658.6948852539062 369.57000732421875 C 658.6948852539062 369.4100036621094 659.224853515625 369.25665283203125 660.2848510742188 369.1099853515625 C 661.3515625 368.9566650390625 662.1981811523438 368.8800048828125 662.8248901367188 368.8800048828125 C 662.938232421875 368.8800048828125 663.0515747070312 368.92333984375 663.1648559570312 369.010009765625 C 663.2715454101562 369.0899963378906 663.3248901367188 369.1833190917969 663.3248901367188 369.2900085449219 C 663.3248901367188 369.5233459472656 663.1715698242188 369.6400146484375 662.8648681640625 369.6400146484375 C 662.8648681640625 369.6400146484375 662.5682373046875 369.6166687011719 661.974853515625 369.57000732421875 C 661.7015380859375 369.57000732421875 661.5348510742188 369.6533203125 661.474853515625 369.82000732421875 C 661.5881958007812 370.82666015625 661.6448974609375 371.8666687011719 661.6448974609375 372.94000244140625 L 661.6148681640625 375.8399963378906 C 661.6148681640625 377.73333740234375 661.7282104492188 379.09332275390625 661.9548950195312 379.9200134277344 C 661.908203125 380.1533203125 661.8848876953125 380.3833312988281 661.8848876953125 380.6099853515625 ZM 668.52587890625 383.42999267578125 L 667.8958740234375 383.45001220703125 C 667.6692504882812 383.3566589355469 667.4192504882812 383.30999755859375 667.1458740234375 383.30999755859375 C 666.87255859375 383.30999755859375 666.7225341796875 383.3166809082031 666.6958618164062 383.3299865722656 C 666.6759033203125 383.3500061035156 666.6625366210938 383.3766784667969 666.6558837890625 383.4100036621094 C 666.642578125 383.45001220703125 666.632568359375 383.4800109863281 666.6259155273438 383.5 L 666.5858764648438 383.9800109863281 C 666.5525512695312 384.38665771484375 666.4758911132812 384.8733215332031 666.3558959960938 385.44000244140625 C 666.1358642578125 386.55999755859375 665.9058837890625 387.1199951171875 665.6658935546875 387.1199951171875 C 665.56591796875 387.1199951171875 665.4625854492188 387.07666015625 665.3558959960938 386.989990234375 C 665.2425537109375 386.9033203125 665.1859130859375 386.80999755859375 665.1859130859375 386.7099914550781 C 665.392578125 386.10333251953125 665.6025390625 385.1933288574219 665.81591796875 383.9800109863281 C 666.035888671875 382.760009765625 666.1725463867188 382 666.2258911132812 381.70001220703125 C 666.285888671875 381.3999938964844 666.3892211914062 380.7900085449219 666.535888671875 379.8699951171875 C 666.6825561523438 378.9566650390625 666.7792358398438 378.3566589355469 666.8258666992188 378.07000732421875 C 666.87255859375 377.7833251953125 666.9992065429688 377.1600036621094 667.2058715820312 376.20001220703125 C 667.4125366210938 375.23333740234375 667.5392456054688 374.60333251953125 667.5858764648438 374.30999755859375 C 667.6259155273438 374.010009765625 667.6725463867188 373.6066589355469 667.7258911132812 373.1000061035156 C 667.8592529296875 371.85333251953125 667.9658813476562 371.1600036621094 668.0458984375 371.0199890136719 L 668.3759155273438 371.0400085449219 C 668.5692138671875 371.0400085449219 668.7125854492188 370.99334716796875 668.805908203125 370.8999938964844 C 668.9058837890625 370.8999938964844 669.0059204101562 370.9333190917969 669.1058959960938 371 C 669.19921875 371.0666809082031 669.2459106445312 371.1533203125 669.2459106445312 371.260009765625 C 669.2459106445312 372.02667236328125 669.342529296875 373.50665283203125 669.535888671875 375.70001220703125 C 669.729248046875 377.8999938964844 669.882568359375 379.32000732421875 669.9959106445312 379.9599914550781 C 670.1092529296875 380.6066589355469 670.2391967773438 381.239990234375 670.3858642578125 381.8599853515625 C 670.5392456054688 382.4800109863281 670.6159057617188 382.9566650390625 670.6159057617188 383.2900085449219 L 670.4959106445312 383.6099853515625 C 670.4959106445312 383.9700012207031 670.5625610351562 384.5 670.6958618164062 385.20001220703125 C 670.8292236328125 385.8999938964844 670.8958740234375 386.3933410644531 670.8958740234375 386.67999267578125 C 670.8958740234375 386.9666748046875 670.8325805664062 387.1433410644531 670.7058715820312 387.2099914550781 C 670.3792114257812 387.2099914550781 670.17919921875 387.163330078125 670.1058959960938 387.07000732421875 C 670.0325317382812 386.9766540527344 669.9959106445312 386.82666015625 669.9959106445312 386.6199951171875 C 669.9959106445312 386.413330078125 669.979248046875 386.1600036621094 669.9458618164062 385.8599853515625 C 669.9192504882812 385.55999755859375 669.892578125 385.32000732421875 669.8659057617188 385.1400146484375 C 669.8392333984375 384.9599914550781 669.7925415039062 384.6766662597656 669.7258911132812 384.2900085449219 C 669.6592407226562 383.9033203125 669.6192016601562 383.6533203125 669.6058959960938 383.5400085449219 C 669.2991943359375 383.4666748046875 668.939208984375 383.42999267578125 668.52587890625 383.42999267578125 M 666.8358764648438 382.239990234375 C 666.8358764648438 382.40667724609375 667.0292358398438 382.5433349609375 667.4158935546875 382.6499938964844 C 668.0025634765625 382.8166809082031 668.6492309570312 382.8999938964844 669.3558959960938 382.8999938964844 L 669.6058959960938 382.8999938964844 C 669.5059204101562 382.586669921875 669.4558715820312 382.2266540527344 669.4558715820312 381.82000732421875 L 669.4558715820312 381.2699890136719 C 669.4558715820312 380.27667236328125 669.3325805664062 378.8299865722656 669.0858764648438 376.92999267578125 C 668.8392333984375 375.03668212890625 668.7058715820312 373.6233215332031 668.6859130859375 372.69000244140625 C 667.8525390625 376.8233337402344 667.3358764648438 379.3766784667969 667.1358642578125 380.3500061035156 C 666.9359130859375 381.3233337402344 666.8358764648438 381.9533386230469 666.8358764648438 382.239990234375 ZM 674.2420654296875 386.45001220703125 L 676.5020751953125 386.5199890136719 L 676.58203125 386.5199890136719 C 676.6620483398438 386.5199890136719 676.7420654296875 386.5633239746094 676.8220825195312 386.6499938964844 C 676.9020385742188 386.74334716796875 676.9420776367188 386.836669921875 676.9420776367188 386.92999267578125 C 676.9420776367188 387.1099853515625 676.8120727539062 387.2099914550781 676.5520629882812 387.2300109863281 C 676.1387329101562 387.2166748046875 675.4754028320312 387.2099914550781 674.5620727539062 387.2099914550781 L 674.612060546875 387.2300109863281 L 673.7220458984375 387.32000732421875 C 673.495361328125 387.32000732421875 673.362060546875 387.13665771484375 673.3220825195312 386.7699890136719 C 673.3486938476562 386.6099853515625 673.362060546875 386.34332275390625 673.362060546875 385.9700012207031 L 673.5020751953125 373.1700134277344 L 673.6220703125 371.5899963378906 C 673.6220703125 371.48333740234375 673.6820678710938 371.42999267578125 673.8020629882812 371.42999267578125 L 674.2020263671875 371.5199890136719 C 674.2020263671875 371.5199890136719 674.1920776367188 372.1533203125 674.1720581054688 373.4200134277344 L 674.2020263671875 378.6400146484375 C 674.1553955078125 379.9533386230469 674.132080078125 380.6266784667969 674.132080078125 380.6600036621094 L 674.1720581054688 382.70001220703125 L 674.10205078125 382.8999938964844 L 674.132080078125 382.8699951171875 L 674.10205078125 383.05999755859375 C 674.10205078125 383.1933288574219 674.1253662109375 383.3066711425781 674.1720581054688 383.3999938964844 L 674.10205078125 385.70001220703125 L 674.10205078125 385.8500061035156 C 674.10205078125 386.10333251953125 674.112060546875 386.26666259765625 674.132080078125 386.3399963378906 C 674.1453857421875 386.413330078125 674.1820678710938 386.45001220703125 674.2420654296875 386.45001220703125 ZM 681.876953125 376.1000061035156 L 681.8269653320312 377.6400146484375 C 681.8269653320312 378.3666687011719 682.1002807617188 379.6966552734375 682.64697265625 381.6300048828125 C 683.3135986328125 383.9566650390625 683.876953125 385.4333190917969 684.3369140625 386.05999755859375 C 684.6502685546875 386.47332763671875 684.8069458007812 386.7699890136719 684.8069458007812 386.95001220703125 C 684.8069458007812 387.2699890136719 684.6702880859375 387.42999267578125 684.39697265625 387.42999267578125 C 684.0169677734375 387.42999267578125 683.5635986328125 386.7133483886719 683.0369262695312 385.2799987792969 C 682.51025390625 383.8399963378906 682.0669555664062 382.35333251953125 681.7069702148438 380.82000732421875 C 681.346923828125 379.28668212890625 681.1569213867188 378.239990234375 681.136962890625 377.67999267578125 L 681.0769653320312 377.5899963378906 C 681.0236206054688 377.7099914550781 680.89697265625 377.9700012207031 680.6969604492188 378.3699951171875 C 680.4969482421875 378.7699890136719 680.35693359375 379.0566711425781 680.2769165039062 379.2300109863281 C 680.0436401367188 379.7833251953125 679.9269409179688 380.3500061035156 679.9269409179688 380.92999267578125 L 679.8169555664062 382.6499938964844 L 679.8169555664062 385.7200012207031 L 679.9769287109375 387.0899963378906 C 679.9769287109375 387.1766662597656 679.9369506835938 387.2466735839844 679.85693359375 387.29998779296875 C 679.770263671875 387.3599853515625 679.6536254882812 387.3900146484375 679.5069580078125 387.3900146484375 C 679.3602905273438 387.3900146484375 679.2503051757812 387.3566589355469 679.1769409179688 387.2900085449219 C 679.1036376953125 387.22332763671875 679.0669555664062 387.086669921875 679.0669555664062 386.8800048828125 L 679.0669555664062 382.3699951171875 L 679.2869262695312 379.3500061035156 L 679.5169677734375 374.7099914550781 L 679.5169677734375 371.3800048828125 C 679.6036376953125 371.20001220703125 679.7302856445312 371.1099853515625 679.89697265625 371.1099853515625 C 680.0702514648438 371.1099853515625 680.20361328125 371.15667724609375 680.2969360351562 371.25 C 680.3902587890625 371.34332275390625 680.4369506835938 371.45001220703125 680.4369506835938 371.57000732421875 C 680.2969360351562 371.8233337402344 680.2269287109375 372.2166748046875 680.2269287109375 372.75 C 680.2269287109375 373.2833251953125 680.2102661132812 374.1166687011719 680.1769409179688 375.25 C 680.1436157226562 376.3833312988281 680.126953125 377.2300109863281 680.126953125 377.7900085449219 C 680.2869262695312 377.7300109863281 680.9102783203125 376.6266784667969 681.9969482421875 374.4800109863281 C 683.0902709960938 372.3333435058594 683.6902465820312 371.260009765625 683.7969360351562 371.260009765625 C 684.20361328125 371.260009765625 684.4169311523438 371.3933410644531 684.4369506835938 371.6600036621094 C 683.4369506835938 373.1266784667969 682.5836181640625 374.6066589355469 681.876953125 376.1000061035156 Z" transform="matrix(16.225419998168945, 0, 0, 16.225419998168945, -9868.7939453125, -6000.033203125)" style="fill: rgb(253, 253, 253); white-space: pre; color: rgb(51, 51, 51);"/></svg>